<mxfile host="app.diagrams.net" agent="Mozilla/5.0 (X11; Linux x86_64; rv:138.0) Gecko/20100101 Firefox/138.0" version="26.2.14">
  <diagram id="WI9T0HZ2pTsCkuznbFz-" name="Page-1">
    <mxGraphModel dx="1397" dy="1487" grid="1" gridSize="10" guides="1" tooltips="1" connect="1" arrows="1" fold="1" page="1" pageScale="1" pageWidth="827" pageHeight="1169" math="0" shadow="0">
      <root>
        <mxCell id="0" />
        <mxCell id="1" parent="0" />
        <mxCell id="AcxdMaKK0mU5kZiv2lnr-31" value="GitHub" style="shape=image;verticalLabelPosition=bottom;labelBackgroundColor=#ffffff;verticalAlign=top;aspect=fixed;imageAspect=0;image=data:image/svg+xml,PHN2ZyB4bWxuczpjYz0iaHR0cDovL2NyZWF0aXZlY29tbW9ucy5vcmcvbnMjIiB4bWxuczpkYz0iaHR0cDovL3B1cmwub3JnL2RjL2VsZW1lbnRzLzEuMS8iIHhtbG5zOmlua3NjYXBlPSJodHRwOi8vd3d3Lmlua3NjYXBlLm9yZy9uYW1lc3BhY2VzL2lua3NjYXBlIiB4bWxuczpyZGY9Imh0dHA6Ly93d3cudzMub3JnLzE5OTkvMDIvMjItcmRmLXN5bnRheC1ucyMiIHhtbG5zOnNvZGlwb2RpPSJodHRwOi8vc29kaXBvZGkuc291cmNlZm9yZ2UubmV0L0RURC9zb2RpcG9kaS0wLmR0ZCIgeG1sbnM6c3ZnPSJodHRwOi8vd3d3LnczLm9yZy8yMDAwL3N2ZyIgeG1sbnM9Imh0dHA6Ly93d3cudzMub3JnLzIwMDAvc3ZnIiB4bWxuczp4bGluaz0iaHR0cDovL3d3dy53My5vcmcvMTk5OS94bGluayIgdmVyc2lvbj0iMS4xIiBpZD0ic3ZnMTc1NjcxIiBpbmtzY2FwZTp2ZXJzaW9uPSIwLjkyLjMgKDI0MDU1NDYsIDIwMTgtMDMtMTEpIiBzb2RpcG9kaTpkb2NuYW1lPSJnaXRodWIuc3ZnIiB4PSIwcHgiIHk9IjBweCIgdmlld0JveD0iMCAwIDQ1LjI3IDQ1LjI5IiBzdHlsZT0iZW5hYmxlLWJhY2tncm91bmQ6bmV3IDAgMCA0NS4yNyA0NS4yOTsiIHhtbDpzcGFjZT0icHJlc2VydmUiPiYjeGE7PHNvZGlwb2RpOm5hbWVkdmlldyBib3JkZXJjb2xvcj0iIzY2NjY2NiIgYm9yZGVyb3BhY2l0eT0iMSIgZml0LW1hcmdpbi1ib3R0b209IjAiIGZpdC1tYXJnaW4tbGVmdD0iMCIgZml0LW1hcmdpbi1yaWdodD0iMCIgZml0LW1hcmdpbi10b3A9IjAiIGdyaWR0b2xlcmFuY2U9IjEwIiBndWlkZXRvbGVyYW5jZT0iMTAiIGlkPSJuYW1lZHZpZXcxNzU2NzMiIGlua3NjYXBlOmN1cnJlbnQtbGF5ZXI9InN2ZzE3NTY3MSIgaW5rc2NhcGU6Y3g9IjMwLjE3ODAyNSIgaW5rc2NhcGU6Y3k9IjMwLjE5NDMxOSIgaW5rc2NhcGU6cGFnZW9wYWNpdHk9IjAiIGlua3NjYXBlOnBhZ2VzaGFkb3c9IjIiIGlua3NjYXBlOndpbmRvdy1oZWlnaHQ9IjEwMTciIGlua3NjYXBlOndpbmRvdy1tYXhpbWl6ZWQ9IjEiIGlua3NjYXBlOndpbmRvdy13aWR0aD0iMTkyMCIgaW5rc2NhcGU6d2luZG93LXg9Ii04IiBpbmtzY2FwZTp3aW5kb3cteT0iLTgiIGlua3NjYXBlOnpvb209IjEwLjA5NTE1OCIgb2JqZWN0dG9sZXJhbmNlPSIxMCIgcGFnZWNvbG9yPSIjZmZmZmZmIiBzaG93Z3JpZD0iZmFsc2UiPiYjeGE7CTwvc29kaXBvZGk6bmFtZWR2aWV3PiYjeGE7PGcgaWQ9ImcxNzU2NjkiIHRyYW5zZm9ybT0idHJhbnNsYXRlKC05LjU2MjU0MTcsLTkuNTYxMzEpIj4mI3hhOwk8dGl0bGUgaWQ9InRpdGxlMTc1NjU5Ij5QYWdlLTE8L3RpdGxlPiYjeGE7CTxnIGlkPSJncm91cDIyNTAtMSIgdHJhbnNmb3JtPSJ0cmFuc2xhdGUoOS41NjMwOCwtOS4zNzg2OSkiPiYjeGE7CQk8dGl0bGUgaWQ9InRpdGxlMTc1NjYxIj5HaXRIdWI8L3RpdGxlPiYjeGE7CQk8ZyBpZD0ic2hhcGUyMjUxLTIiPiYjeGE7CQkJPHRpdGxlIGlkPSJ0aXRsZTE3NTY2MyI+U2hlZXQuMjI1MTwvdGl0bGU+JiN4YTsJCQk8cGF0aCBpZD0icGF0aDE3NTY2NSIgaW5rc2NhcGU6Y29ubmVjdG9yLWN1cnZhdHVyZT0iMCIgZD0iTTIyLjYzLDE4Ljk0QzEwLjE0LDE4Ljk0LDAsMjkuMzMsMCw0Mi4xNSAgICAgYy0wLjA3LDkuODksNi4xNSwxOC43MywxNS40OCwyMi4wMWMxLjEzLDAuMjIsMS41NC0wLjUsMS41NC0xLjExYzAtMC42MiwwLTIuMDEsMC0zLjk1Yy02LjI5LDEuNDEtNy42Mi0zLjExLTcuNjItMy4xMSAgICAgYy0xLjAzLTIuNjgtMi41MS0zLjQtMi41MS0zLjRjLTIuMDYtMS40MSwwLjE1LTEuNDEsMC4xNS0xLjQxYzIuMjcsMC4xNiwzLjQ3LDIuMzksMy40NywyLjM5YzIuMDIsMy41NCw1LjMsMi41Miw2LjU4LDEuOTMgICAgIGMwLjEtMS4xNywwLjYtMi4yNiwxLjQyLTMuMUMxMy40OCw1MS44MSw4LjIsNDkuODIsOC4yLDQwLjkyYy0wLjA0LTIuMjksMC43OS00LjUxLDIuMzItNi4yMmMtMC42OS0yLTAuNjEtNC4xOSwwLjIyLTYuMTQgICAgIGMwLDAsMS45MS0wLjYyLDYuMjMsMi40YzMuNy0xLjA0LDcuNjItMS4wNCwxMS4zMiwwYzQuMzItMyw2LjIyLTIuMzcsNi4yMi0yLjM3YzAuODMsMS45NSwwLjkxLDQuMTQsMC4yMiw2LjE0ICAgICBjMS41MywxLjcsMi4zNywzLjkzLDIuMzMsNi4yMmMwLDguOTEtNS4yOSwxMC44OC0xMC4zMywxMS40NWMwLjgxLDAuNzEsMS41MywyLjEyLDEuNTMsNC4zYzAsMy4xMSwwLDUuNjEsMCw2LjM3ICAgICBjMCwwLjYyLDAuNDEsMS4zNCwxLjU2LDEuMTJjOS4zMy0zLjMsMTUuNTMtMTIuMTUsMTUuNDUtMjIuMDRDNDUuMjcsMjkuMzMsMzUuMTMsMTguOTQsMjIuNjMsMTguOTR6Ii8+JiN4YTsJCTwvZz4mI3hhOwk8L2c+JiN4YTs8L2c+JiN4YTs8L3N2Zz4=;spacingTop=4;" parent="1" vertex="1">
          <mxGeometry x="-142.5" y="300" width="60" height="60" as="geometry" />
        </mxCell>
        <mxCell id="lqJwBGlJz0aM91r_tTBh-1" value="" style="shape=image;verticalLabelPosition=bottom;labelBackgroundColor=#ffffff;verticalAlign=top;aspect=fixed;imageAspect=0;image=data:image/svg+xml,PHN2ZyB4bWxuczpjYz0iaHR0cDovL2NyZWF0aXZlY29tbW9ucy5vcmcvbnMjIiB4bWxuczpkYz0iaHR0cDovL3B1cmwub3JnL2RjL2VsZW1lbnRzLzEuMS8iIHhtbG5zOmlua3NjYXBlPSJodHRwOi8vd3d3Lmlua3NjYXBlLm9yZy9uYW1lc3BhY2VzL2lua3NjYXBlIiB4bWxuczpyZGY9Imh0dHA6Ly93d3cudzMub3JnLzE5OTkvMDIvMjItcmRmLXN5bnRheC1ucyMiIHhtbG5zOnNvZGlwb2RpPSJodHRwOi8vc29kaXBvZGkuc291cmNlZm9yZ2UubmV0L0RURC9zb2RpcG9kaS0wLmR0ZCIgeG1sbnM6c3ZnPSJodHRwOi8vd3d3LnczLm9yZy8yMDAwL3N2ZyIgeG1sbnM9Imh0dHA6Ly93d3cudzMub3JnLzIwMDAvc3ZnIiB4bWxuczp4bGluaz0iaHR0cDovL3d3dy53My5vcmcvMTk5OS94bGluayIgdmVyc2lvbj0iMS4xIiBpZD0ic3ZnNjc4MzQiIGlua3NjYXBlOnZlcnNpb249IjAuOTIuMyAoMjQwNTU0NiwgMjAxOC0wMy0xMSkiIHNvZGlwb2RpOmRvY25hbWU9ImJvdC5zdmciIHg9IjBweCIgeT0iMHB4IiB2aWV3Qm94PSIwIDAgNjEuNjcgODUuMTciIHN0eWxlPSJlbmFibGUtYmFja2dyb3VuZDpuZXcgMCAwIDYxLjY3IDg1LjE3OyIgeG1sOnNwYWNlPSJwcmVzZXJ2ZSI+JiN4YTs8c29kaXBvZGk6bmFtZWR2aWV3IGJvcmRlcmNvbG9yPSIjNjY2NjY2IiBib3JkZXJvcGFjaXR5PSIxIiBmaXQtbWFyZ2luLWJvdHRvbT0iMCIgZml0LW1hcmdpbi1sZWZ0PSIwIiBmaXQtbWFyZ2luLXJpZ2h0PSIwIiBmaXQtbWFyZ2luLXRvcD0iMCIgZ3JpZHRvbGVyYW5jZT0iMTAiIGd1aWRldG9sZXJhbmNlPSIxMCIgaWQ9Im5hbWVkdmlldzY3ODM2IiBpbmtzY2FwZTpjdXJyZW50LWxheWVyPSJzdmc2NzgzNCIgaW5rc2NhcGU6Y3g9IjMwLjgzNTY0OCIgaW5rc2NhcGU6Y3k9IjQ4LjE2MTg3MSIgaW5rc2NhcGU6cGFnZW9wYWNpdHk9IjAiIGlua3NjYXBlOnBhZ2VzaGFkb3c9IjIiIGlua3NjYXBlOndpbmRvdy1oZWlnaHQ9IjEwMTciIGlua3NjYXBlOndpbmRvdy1tYXhpbWl6ZWQ9IjEiIGlua3NjYXBlOndpbmRvdy13aWR0aD0iMTkyMCIgaW5rc2NhcGU6d2luZG93LXg9Ii04IiBpbmtzY2FwZTp3aW5kb3cteT0iLTgiIGlua3NjYXBlOnpvb209IjUuMjk2NDI0OCIgb2JqZWN0dG9sZXJhbmNlPSIxMCIgcGFnZWNvbG9yPSIjZmZmZmZmIiBzaG93Z3JpZD0iZmFsc2UiPiYjeGE7CTwvc29kaXBvZGk6bmFtZWR2aWV3PiYjeGE7PGcgaWQ9Imc2NzgzMiIgdHJhbnNmb3JtPSJ0cmFuc2xhdGUoLTEuNTI5ODkzLC0wLjg5NDUwOTgpIj4mI3hhOwk8dGl0bGUgaWQ9InRpdGxlNjc2OTYiPlBhZ2UtMTwvdGl0bGU+JiN4YTsJPGcgaWQ9Imdyb3VwNTcwOS0xIiB0cmFuc2Zvcm09InRyYW5zbGF0ZSgzLjg3NzUsLTAuNzUpIj4mI3hhOwkJPHRpdGxlIGlkPSJ0aXRsZTY3Njk4Ij5Cb3Q8L3RpdGxlPiYjeGE7CQk8ZyBpZD0iZ3JvdXA1NzEwLTIiPiYjeGE7CQkJPHRpdGxlIGlkPSJ0aXRsZTY3NzAwIj5nNzA3MTwvdGl0bGU+JiN4YTsJCQk8ZyBpZD0iZ3JvdXA1NzExLTMiIHRyYW5zZm9ybT0idHJhbnNsYXRlKDI0LjYxMzgsLTU5LjI0MjUpIj4mI3hhOwkJCQk8dGl0bGUgaWQ9InRpdGxlNjc3MDIiPmc3MDQxPC90aXRsZT4mI3hhOwkJCQk8ZyBpZD0ic2hhcGU1NzEyLTQiIHRyYW5zZm9ybT0idHJhbnNsYXRlKDEuODYxMTYpIj4mI3hhOwkJCQkJPHRpdGxlIGlkPSJ0aXRsZTY3NzA0Ij5yZWN0NzAzNzwvdGl0bGU+JiN4YTsJCQkJCTxwYXRoIGlkPSJwYXRoNjc3MDYiIGlua3NjYXBlOmNvbm5lY3Rvci1jdXJ2YXR1cmU9IjAiIHN0eWxlPSJmaWxsOiMwMDc4RDc7IiBkPSJNMCw4NS4zMWMwLDAuODMsMC42NywxLjUsMS41LDEuNWgwLjI3ICAgICAgIGMwLjgzLDAsMS41LTAuNjcsMS41LTEuNVY3NS4yNWMwLTAuODMtMC42Ny0xLjUtMS41LTEuNUgxLjVjLTAuODMsMC0xLjUsMC42Ny0xLjUsMS41Vjg1LjMxeiIvPiYjeGE7CQkJCTwvZz4mI3hhOwkJCQk8ZyBpZD0ic2hhcGU1NzEzLTYiIHRyYW5zZm9ybT0idHJhbnNsYXRlKDAsLTEyLjA3MjYpIj4mI3hhOwkJCQkJPHRpdGxlIGlkPSJ0aXRsZTY3NzA5Ij5wYXRoNzAzOTwvdGl0bGU+JiN4YTsJCQkJCTxwYXRoIGlkPSJwYXRoNjc3MTEiIGlua3NjYXBlOmNvbm5lY3Rvci1jdXJ2YXR1cmU9IjAiIHN0eWxlPSJmaWxsOiMwMDc4RDc7IiBkPSJNMy41LDc4LjQ2Yy0yLjctMC4wMi00LjkxLDIuMTctNC45Miw0Ljg3ICAgICAgIHMyLjE3LDQuOTEsNC44Nyw0LjkyczQuOTEtMi4xNyw0LjkyLTQuODdjMCwwLDAtMC4wMSwwLTAuMDFDOC4zOCw4MC42Nyw2LjIsNzguNDgsMy41LDc4LjQ2eiBNMy41LDg1LjgxICAgICAgIGMtMS4zNSwwLTIuNDUtMS4xLTIuNDUtMi40NWMwLTEuMzUsMS4xLTIuNDUsMi40NS0yLjQ2czIuNDUsMS4xLDIuNDUsMi40NWMwLDAsMCwwLDAsMEM1Ljk1LDg0LjcxLDQuODYsODUuODIsMy41LDg1LjgxICAgICAgIGMwLDAuMDEsMCwwLjAxLDAsMC4wMVY4NS44MXoiLz4mI3hhOwkJCQk8L2c+JiN4YTsJCQk8L2c+JiN4YTsJCQk8ZyBpZD0ic2hhcGU1NzE0LTgiIHRyYW5zZm9ybT0idHJhbnNsYXRlKDExLjk4NSwtNDQuOTI1KSI+JiN4YTsJCQkJPHRpdGxlIGlkPSJ0aXRsZTY3NzE1Ij5yZWN0NzA0MzwvdGl0bGU+JiN4YTsJCQkJJiN4YTsJCQkJCTxwYXRoIGlkPSJwYXRoNjc3MTciIGlua3NjYXBlOmNvbm5lY3Rvci1jdXJ2YXR1cmU9IjAiIHN0eWxlPSJmaWxsOiNFNkU2RTY7c3Ryb2tlOiM3MzczNzM7c3Ryb2tlLXdpZHRoOjEuNTtzdHJva2UtbWl0ZXJsaW1pdDozOyIgZD0iICAgICAgTTAsODMuODFjMCwxLjY2LDEuMzQsMywzLDNoMjcuNzVjMS42NiwwLDMtMS4zNCwzLTN2LTEwLjVjMC0xLjY2LTEuMzQtMy0zLTNIM2MtMS42NiwwLTMsMS4zNC0zLDNWODMuODF6Ii8+JiN4YTsJCQk8L2c+JiN4YTsJCQk8ZyBpZD0ic2hhcGU1NzE1LTEwIiB0cmFuc2Zvcm09InRyYW5zbGF0ZSgxNy45ODUsLTQuOTEyNSkiPiYjeGE7CQkJCTx0aXRsZSBpZD0idGl0bGU2NzcyMCI+cmVjdDcwNDU8L3RpdGxlPiYjeGE7CQkJCTxwYXRoIGlkPSJwYXRoNjc3MjIiIGlua3NjYXBlOmNvbm5lY3Rvci1jdXJ2YXR1cmU9IjAiIHN0eWxlPSJmaWxsOiM3MzczNzM7IiBkPSJNMCw4NS4zMWMwLDAuODMsMC42NywxLjUsMS41LDEuNWgyLjQgICAgICBjMC44MywwLDEuNS0wLjY3LDEuNS0xLjV2LTEzLjJjMC0wLjgzLTAuNjctMS41LTEuNS0xLjVIMS41Yy0wLjgzLDAtMS41LDAuNjctMS41LDEuNVY4NS4zMXoiLz4mI3hhOwkJCTwvZz4mI3hhOwkJCTxnIGlkPSJzaGFwZTU3MTYtMTIiIHRyYW5zZm9ybT0idHJhbnNsYXRlKDE0LjMxKSI+JiN4YTsJCQkJPHRpdGxlIGlkPSJ0aXRsZTY3NzI1Ij5wYXRoNzA0NzwvdGl0bGU+JiN4YTsJCQkJPHBhdGggaWQ9InBhdGg2NzcyNyIgaW5rc2NhcGU6Y29ubmVjdG9yLWN1cnZhdHVyZT0iMCIgc3R5bGU9ImZpbGw6IzAwNzhENzsiIGQ9Ik02LjUzLDgwLjA2QzIuODYsODAuMTItMC4wNiw4My4xNCwwLDg2LjgxICAgICAgaDEzLjA2QzEzLjEyLDgzLjE0LDEwLjIsODAuMTIsNi41Myw4MC4wNnoiLz4mI3hhOwkJCTwvZz4mI3hhOwkJCTxnIGlkPSJzaGFwZTU3MTctMTQiIHRyYW5zZm9ybT0idHJhbnNsYXRlKDMyLjk4NSwtNC45MTI1KSI+JiN4YTsJCQkJPHRpdGxlIGlkPSJ0aXRsZTY3NzMwIj5yZWN0NzA0OTwvdGl0bGU+JiN4YTsJCQkJPHBhdGggaWQ9InBhdGg2NzczMiIgaW5rc2NhcGU6Y29ubmVjdG9yLWN1cnZhdHVyZT0iMCIgc3R5bGU9ImZpbGw6IzczNzM3MzsiIGQ9Ik0wLDg1LjMxYzAsMC44MywwLjY3LDEuNSwxLjUsMS41aDIuNCAgICAgIGMwLjgzLDAsMS41LTAuNjcsMS41LTEuNXYtMTMuMmMwLTAuODMtMC42Ny0xLjUtMS41LTEuNUgxLjVjLTAuODMsMC0xLjUsMC42Ny0xLjUsMS41Vjg1LjMxeiIvPiYjeGE7CQkJPC9nPiYjeGE7CQkJPGcgaWQ9InNoYXBlNTcxOC0xNiIgdHJhbnNmb3JtPSJ0cmFuc2xhdGUoMjkuMTYpIj4mI3hhOwkJCQk8dGl0bGUgaWQ9InRpdGxlNjc3MzUiPnBhdGg3MDUxPC90aXRsZT4mI3hhOwkJCQk8cGF0aCBpZD0icGF0aDY3NzM3IiBpbmtzY2FwZTpjb25uZWN0b3ItY3VydmF0dXJlPSIwIiBzdHlsZT0iZmlsbDojMDA3OEQ3OyIgZD0iTTYuNTMsODAuMDZDMi44Niw4MC4xMi0wLjA2LDgzLjE0LDAsODYuODEgICAgICBoMTMuMDZDMTMuMTIsODMuMTQsMTAuMiw4MC4xMiw2LjUzLDgwLjA2eiIvPiYjeGE7CQkJPC9nPiYjeGE7CQkJPGcgaWQ9InNoYXBlNTcxOS0xOCIgdHJhbnNmb3JtPSJyb3RhdGUoLTg1LjA2LC0xNS43NTM3ODksNTAuMTA4NTQxKSI+JiN4YTsJCQkJPHRpdGxlIGlkPSJ0aXRsZTY3NzQwIj5jaXJjbGU3MDUzPC90aXRsZT4mI3hhOwkJCQk8Y2lyY2xlIGlkPSJlbGxpcHNlNjc3NDIiIHN0eWxlPSJmaWxsOiMwMDIwNTA7IiBjeD0iMi43IiBjeT0iODQuMTEiIHI9IjIuNyIvPiYjeGE7CQkJPC9nPiYjeGE7CQkJPGcgaWQ9InNoYXBlNTcyMC0yMCIgdHJhbnNmb3JtPSJyb3RhdGUoLTg1LjA2LC02LjY0MDIyOTksNDAuMTczNTA0KSI+JiN4YTsJCQkJPHRpdGxlIGlkPSJ0aXRsZTY3NzQ1Ij5jaXJjbGU3MDU1PC90aXRsZT4mI3hhOwkJCQk8Y2lyY2xlIGlkPSJlbGxpcHNlNjc3NDciIHN0eWxlPSJmaWxsOiMwMDIwNTA7IiBjeD0iMi43IiBjeT0iODQuMTEiIHI9IjIuNyIvPiYjeGE7CQkJPC9nPiYjeGE7CQkJPGcgaWQ9InNoYXBlNTcyMS0yMiIgdHJhbnNmb3JtPSJ0cmFuc2xhdGUoMzkuMjg1LC0yNS44Mzc1KSI+JiN4YTsJCQkJPHRpdGxlIGlkPSJ0aXRsZTY3NzUwIj5wYXRoNzA1NzwvdGl0bGU+JiN4YTsJCQkJPHBhdGggaWQ9InBhdGg2Nzc1MiIgaW5rc2NhcGU6Y29ubmVjdG9yLWN1cnZhdHVyZT0iMCIgc3R5bGU9ImZpbGw6IzZENkU3MTsiIGQ9Ik0xNS41Miw4MC43NHY2LjA3aC0zLjM3di02LjEzICAgICAgYzAtMC40My0wLjA0LTAuODYtMC4xLTEuMjljLTAuNS0zLjMtMi44My01LjUxLTUuODYtNS41MUgwdi0zLjIzaDYuMjFjNC43LDAsOC42LDMuOTUsOS4yMiw4Ljc3ICAgICAgQzE1LjQ5LDc5Ljg2LDE1LjUyLDgwLjMsMTUuNTIsODAuNzR6Ii8+JiN4YTsJCQk8L2c+JiN4YTsJCQk8ZyBpZD0ic2hhcGU1NzIyLTI0IiB0cmFuc2Zvcm09InRyYW5zbGF0ZSg0OS45NSwtMTkuNSkiPiYjeGE7CQkJCTx0aXRsZSBpZD0idGl0bGU2Nzc1NSI+cGF0aDcwNTk8L3RpdGxlPiYjeGE7CQkJCTxwYXRoIGlkPSJwYXRoNjc3NTciIGlua3NjYXBlOmNvbm5lY3Rvci1jdXJ2YXR1cmU9IjAiIHN0eWxlPSJmaWxsOm5vbmU7IiBkPSJNMCw4Ni44MWMtMS40NS0xLjk0LTEuMDYtNC42OSwwLjg4LTYuMTQgICAgICBzNC42OS0xLjA2LDYuMTQsMC44OGMxLjE3LDEuNTYsMS4xNywzLjcxLDAsNS4yNkgweiIvPiYjeGE7CQkJCSYjeGE7CQkJCQk8cGF0aCBpZD0icGF0aDY3NzU5IiBpbmtzY2FwZTpjb25uZWN0b3ItY3VydmF0dXJlPSIwIiBzdHlsZT0iZmlsbDpub25lO3N0cm9rZTojNkQ2RTcxO3N0cm9rZS13aWR0aDozO3N0cm9rZS1taXRlcmxpbWl0OjM7IiBkPSIgICAgICBNMCw4Ni44MWMtMS40NS0xLjk0LTEuMDYtNC42OSwwLjg4LTYuMTRzNC42OS0xLjA2LDYuMTQsMC44OGMxLjE3LDEuNTYsMS4xNywzLjcxLDAsNS4yNiIvPiYjeGE7CQkJPC9nPiYjeGE7CQkJPGcgaWQ9InNoYXBlNTcyMy0yNyIgdHJhbnNmb3JtPSJ0cmFuc2xhdGUoNDEuMzEsLTMzLjI2MjUpIj4mI3hhOwkJCQk8dGl0bGUgaWQ9InRpdGxlNjc3NjIiPnBhdGg3MDYxPC90aXRsZT4mI3hhOwkJCQk8cGF0aCBpZD0icGF0aDY3NzY0IiBpbmtzY2FwZTpjb25uZWN0b3ItY3VydmF0dXJlPSIwIiBzdHlsZT0iZmlsbDojMDA3OEQ3OyIgZD0iTTEzLjQyLDg2LjgxaC0zLjM3ICAgICAgYy0wLjUtMy4yOS0yLjgzLTUuNS01Ljg3LTUuNUgwdi0zLjI0aDQuMThDOC45Miw3OC4wNywxMi43OSw4MS45OSwxMy40Miw4Ni44MXoiLz4mI3hhOwkJCTwvZz4mI3hhOwkJCTxnIGlkPSJzaGFwZTU3MjQtMjkiIHRyYW5zZm9ybT0idHJhbnNsYXRlKDIuMTYsLTI1LjgzNzUpIj4mI3hhOwkJCQk8dGl0bGUgaWQ9InRpdGxlNjc3NjciPnBhdGg3MDYzPC90aXRsZT4mI3hhOwkJCQk8cGF0aCBpZD0icGF0aDY3NzY5IiBpbmtzY2FwZTpjb25uZWN0b3ItY3VydmF0dXJlPSIwIiBzdHlsZT0iZmlsbDojNkQ2RTcxOyIgZD0iTTAsODAuNzR2Ni4wN2gzLjM3di02LjEzICAgICAgYzAtMC40MywwLjA0LTAuODYsMC4xLTEuMjljMC41LTMuMywyLjgzLTUuNTEsNS44Ny01LjUxaDYuMjF2LTMuMjNIOS4zNGMtNC43MSwwLTguNjEsMy45NS05LjIzLDguNzcgICAgICBDMC4wNCw3OS44NiwwLjAxLDgwLjMsMCw4MC43NHoiLz4mI3hhOwkJCTwvZz4mI3hhOwkJCTxnIGlkPSJzaGFwZTU3MjUtMzEiIHRyYW5zZm9ybT0idHJhbnNsYXRlKDAsLTE5LjUpIj4mI3hhOwkJCQk8dGl0bGUgaWQ9InRpdGxlNjc3NzIiPnBhdGg3MDY1PC90aXRsZT4mI3hhOwkJCQk8cGF0aCBpZD0icGF0aDY3Nzc0IiBpbmtzY2FwZTpjb25uZWN0b3ItY3VydmF0dXJlPSIwIiBzdHlsZT0iZmlsbDpub25lOyIgZD0iTTcuMDIsODYuODFjMS40NS0xLjk0LDEuMDYtNC42OS0wLjg4LTYuMTQgICAgICBTMS40NSw3OS42MSwwLDgxLjU1Yy0xLjE3LDEuNTYtMS4xNywzLjcxLDAsNS4yNkg3LjAyeiIvPiYjeGE7CQkJCSYjeGE7CQkJCQk8cGF0aCBpZD0icGF0aDY3Nzc2IiBpbmtzY2FwZTpjb25uZWN0b3ItY3VydmF0dXJlPSIwIiBzdHlsZT0iZmlsbDpub25lO3N0cm9rZTojNkQ2RTcxO3N0cm9rZS13aWR0aDozO3N0cm9rZS1taXRlcmxpbWl0OjM7IiBkPSIgICAgICBNNy4wMiw4Ni44MWMxLjQ1LTEuOTQsMS4wNi00LjY5LTAuODgtNi4xNFMxLjQ1LDc5LjYxLDAsODEuNTVjLTEuMTcsMS41Ni0xLjE3LDMuNzEsMCw1LjI2Ii8+JiN4YTsJCQk8L2c+JiN4YTsJCQk8ZyBpZD0ic2hhcGU1NzI2LTM0IiB0cmFuc2Zvcm09InRyYW5zbGF0ZSgyLjIzNSwtMzMuMjYyNSkiPiYjeGE7CQkJCTx0aXRsZSBpZD0idGl0bGU2Nzc3OSI+cGF0aDcwNjc8L3RpdGxlPiYjeGE7CQkJCTxwYXRoIGlkPSJwYXRoNjc3ODEiIGlua3NjYXBlOmNvbm5lY3Rvci1jdXJ2YXR1cmU9IjAiIHN0eWxlPSJmaWxsOiMwMDc4RDc7IiBkPSJNMCw4Ni44MWgzLjM2YzAuNS0zLjI5LDIuODMtNS41LDUuODYtNS41aDQuMTkgICAgICB2LTMuMjRIOS4yMkM0LjUsNzguMDcsMC42Myw4MS45OSwwLDg2LjgxeiIvPiYjeGE7CQkJPC9nPiYjeGE7CQkJPGcgaWQ9InNoYXBlNTcyNy0zNiIgdHJhbnNmb3JtPSJ0cmFuc2xhdGUoMTEuMjM1LC0xNS43NSkiPiYjeGE7CQkJCTx0aXRsZSBpZD0idGl0bGU2Nzc4NCI+cGF0aDcwNjk8L3RpdGxlPiYjeGE7CQkJCTxwYXRoIGlkPSJwYXRoNjc3ODYiIGlua3NjYXBlOmNvbm5lY3Rvci1jdXJ2YXR1cmU9IjAiIHN0eWxlPSJmaWxsOiM3MzczNzM7IiBkPSJNMCw1OS44MVY4MS45YzAuMDgsMi43OCwyLjM4LDQuOTcsNS4xNiw0LjkxICAgICAgaDI0LjkzYzIuNzgsMC4wNiw1LjA4LTIuMTMsNS4xNi00LjkxVjU5LjgxSDB6Ii8+JiN4YTsJCQk8L2c+JiN4YTsJCTwvZz4mI3hhOwkJPGcgaWQ9InNoYXBlNTcyOC0zOCIgdHJhbnNmb3JtPSJ0cmFuc2xhdGUoMTUuODQ3NSwtNjQuOTY1KSI+JiN4YTsJCQk8dGl0bGUgaWQ9InRpdGxlNjc3OTAiPnBhdGg3MDk3PC90aXRsZT4mI3hhOwkJCTxwYXRoIGlkPSJwYXRoNjc3OTIiIGlua3NjYXBlOmNvbm5lY3Rvci1jdXJ2YXR1cmU9IjAiIHN0eWxlPSJmaWxsOm5vbmU7IiBkPSJNNC45MSw4Ni44MWMtNS40MS00LjA1LTYuNTItMTEuNzItMi40Ny0xNy4xMyAgICAgYzAuNy0wLjk0LDEuNTMtMS43NywyLjQ3LTIuNDdWODYuODF6Ii8+JiN4YTsJCQkmI3hhOwkJCQk8cGF0aCBpZD0icGF0aDY3Nzk0IiBpbmtzY2FwZTpjb25uZWN0b3ItY3VydmF0dXJlPSIwIiBzdHlsZT0iZmlsbDpub25lO3N0cm9rZTojMDA3OEQ3O3N0cm9rZS13aWR0aDoxLjU7c3Ryb2tlLW1pdGVybGltaXQ6MzsiIGQ9IiAgICAgTTQuOTEsODYuODFjLTUuNDEtNC4wNS02LjUyLTExLjcyLTIuNDctMTcuMTNjMC43LTAuOTQsMS41My0xLjc3LDIuNDctMi40NyIvPiYjeGE7CQk8L2c+JiN4YTsJCTxnIGlkPSJzaGFwZTU3MjktNDEiIHRyYW5zZm9ybT0idHJhbnNsYXRlKDM1LjQ1MjUsLTY0Ljk1NzUpIj4mI3hhOwkJCTx0aXRsZSBpZD0idGl0bGU2Nzc5NyI+cGF0aDcwOTk8L3RpdGxlPiYjeGE7CQkJPHBhdGggaWQ9InBhdGg2Nzc5OSIgaW5rc2NhcGU6Y29ubmVjdG9yLWN1cnZhdHVyZT0iMCIgc3R5bGU9ImZpbGw6bm9uZTsiIGQ9Ik0wLDY3LjIxYzUuNDEsNC4wNSw2LjUyLDExLjcyLDIuNDcsMTcuMTMgICAgIGMtMC43LDAuOTQtMS41MywxLjc3LTIuNDcsMi40N1Y2Ny4yMXoiLz4mI3hhOwkJCSYjeGE7CQkJCTxwYXRoIGlkPSJwYXRoNjc4MDEiIGlua3NjYXBlOmNvbm5lY3Rvci1jdXJ2YXR1cmU9IjAiIHN0eWxlPSJmaWxsOm5vbmU7c3Ryb2tlOiMwMDc4RDc7c3Ryb2tlLXdpZHRoOjEuNTtzdHJva2UtbWl0ZXJsaW1pdDozOyIgZD0iICAgICBNMCw2Ny4yMWM1LjQxLDQuMDUsNi41MiwxMS43MiwyLjQ3LDE3LjEzYy0wLjcsMC45NC0xLjUzLDEuNzctMi40NywyLjQ3Ii8+JiN4YTsJCTwvZz4mI3hhOwkJPGcgaWQ9InNoYXBlNTczMC00NCIgdHJhbnNmb3JtPSJ0cmFuc2xhdGUoMzIuMTksLTY4LjE3NSkiPiYjeGE7CQkJPHRpdGxlIGlkPSJ0aXRsZTY3ODA0Ij5wYXRoNzEwMTwvdGl0bGU+JiN4YTsJCQk8cGF0aCBpZD0icGF0aDY3ODA2IiBpbmtzY2FwZTpjb25uZWN0b3ItY3VydmF0dXJlPSIwIiBzdHlsZT0iZmlsbDpub25lOyIgZD0iTTAsODYuODFjMy42NC0xLjgsNS4xMi02LjIxLDMuMzItOS44NSAgICAgQzIuNjEsNzUuNTIsMS40NCw3NC4zNSwwLDczLjY0Vjg2LjgxeiIvPiYjeGE7CQkJJiN4YTsJCQkJPHBhdGggaWQ9InBhdGg2NzgwOCIgaW5rc2NhcGU6Y29ubmVjdG9yLWN1cnZhdHVyZT0iMCIgc3R5bGU9ImZpbGw6bm9uZTtzdHJva2U6IzAwNzhENztzdHJva2Utd2lkdGg6MS41O3N0cm9rZS1taXRlcmxpbWl0OjM7IiBkPSIgICAgIE0wLDg2LjgxYzMuNjQtMS44LDUuMTItNi4yMSwzLjMyLTkuODVDMi42MSw3NS41MiwxLjQ0LDc0LjM1LDAsNzMuNjQiLz4mI3hhOwkJPC9nPiYjeGE7CQk8ZyBpZD0ic2hhcGU1NzMxLTQ3IiB0cmFuc2Zvcm09InRyYW5zbGF0ZSgxOS45Mzc1LC02OC4xNzUpIj4mI3hhOwkJCTx0aXRsZSBpZD0idGl0bGU2NzgxMSI+cGF0aDcxMDM8L3RpdGxlPiYjeGE7CQkJPHBhdGggaWQ9InBhdGg2NzgxMyIgaW5rc2NhcGU6Y29ubmVjdG9yLWN1cnZhdHVyZT0iMCIgc3R5bGU9ImZpbGw6bm9uZTsiIGQ9Ik00LjA4LDczLjY0Yy0zLjY0LDEuOC01LjEyLDYuMjEtMy4zMiw5Ljg1ICAgICBjMC43MSwxLjQ0LDEuODgsMi42MSwzLjMyLDMuMzJWNzMuNjR6Ii8+JiN4YTsJCQkmI3hhOwkJCQk8cGF0aCBpZD0icGF0aDY3ODE1IiBpbmtzY2FwZTpjb25uZWN0b3ItY3VydmF0dXJlPSIwIiBzdHlsZT0iZmlsbDpub25lO3N0cm9rZTojMDA3OEQ3O3N0cm9rZS13aWR0aDoxLjU7c3Ryb2tlLW1pdGVybGltaXQ6MzsiIGQ9IiAgICAgTTQuMDgsNzMuNjRjLTMuNjQsMS44LTUuMTIsNi4yMS0zLjMyLDkuODVjMC43MSwxLjQ0LDEuODgsMi42MSwzLjMyLDMuMzIiLz4mI3hhOwkJPC9nPiYjeGE7CQk8ZyBpZD0iZ3JvdXA1NzMyLTUwIiB0cmFuc2Zvcm09InRyYW5zbGF0ZSgyMy4yMzUsLTI3LjM5KSI+JiN4YTsJCQk8dGl0bGUgaWQ9InRpdGxlNjc4MTgiPmc3MTA5PC90aXRsZT4mI3hhOwkJCTxnIGlkPSJzaGFwZTU3MzMtNTEiIHRyYW5zZm9ybT0idHJhbnNsYXRlKDAsLTAuMDY4ODg1NikiPiYjeGE7CQkJCTx0aXRsZSBpZD0idGl0bGU2NzgyMCI+cGF0aDcxMDU8L3RpdGxlPiYjeGE7CQkJCSYjeGE7CQkJCQk8cGF0aCBpZD0icGF0aDY3ODIyIiBpbmtzY2FwZTpjb25uZWN0b3ItY3VydmF0dXJlPSIwIiBzdHlsZT0iZmlsbDojRTZFNkU2O3N0cm9rZTojNzM3MzczO3N0cm9rZS13aWR0aDoxLjU7c3Ryb2tlLW1pdGVybGltaXQ6MzsiIGQ9IiAgICAgIE0wLDgyLjc3YzAsMy4xNiwyLjU1LDUuNzIsNS43MSw1LjcyYzMuMTYsMCw1LjcyLTIuNTUsNS43Mi01LjcxYzAtMy4xNi0yLjU1LTUuNzItNS43MS01LjcyYzAsMC0wLjAxLDAtMC4wMSwwICAgICAgQzIuNTYsNzcuMDcsMC4wMSw3OS42MiwwLDgyLjc3eiIvPiYjeGE7CQkJPC9nPiYjeGE7CQkJPGcgaWQ9InNoYXBlNTczNC01MyIgdHJhbnNmb3JtPSJ0cmFuc2xhdGUoMS42MDUpIj4mI3hhOwkJCQk8dGl0bGUgaWQ9InRpdGxlNjc4MjUiPmNpcmNsZTcxMDc8L3RpdGxlPiYjeGE7CQkJCTxjaXJjbGUgaWQ9ImVsbGlwc2U2NzgyNyIgc3R5bGU9ImZpbGw6I0ZGRkZGRjsiIGN4PSI0LjA4IiBjeT0iODIuNzMiIHI9IjQuMDgiLz4mI3hhOwkJCTwvZz4mI3hhOwkJPC9nPiYjeGE7CTwvZz4mI3hhOzwvZz4mI3hhOzwvc3ZnPg==;" parent="1" vertex="1">
          <mxGeometry x="278.0000000000001" y="80.5" width="62" height="85" as="geometry" />
        </mxCell>
        <mxCell id="lqJwBGlJz0aM91r_tTBh-5" value="" style="image;aspect=fixed;html=1;points=[];align=center;fontSize=12;image=img/lib/azure2/ai_machine_learning/Speech_Services.svg;" parent="1" vertex="1">
          <mxGeometry x="290" y="-100" width="68" height="68" as="geometry" />
        </mxCell>
        <mxCell id="lqJwBGlJz0aM91r_tTBh-6" value="" style="endArrow=classic;html=1;rounded=0;exitX=0.5;exitY=0;exitDx=0;exitDy=0;strokeWidth=2;" parent="1" source="lqJwBGlJz0aM91r_tTBh-1" edge="1">
          <mxGeometry width="50" height="50" relative="1" as="geometry">
            <mxPoint x="390" y="210" as="sourcePoint" />
            <mxPoint x="310" y="-10" as="targetPoint" />
          </mxGeometry>
        </mxCell>
        <mxCell id="lqJwBGlJz0aM91r_tTBh-8" value="SQL Database" style="text;html=1;align=center;verticalAlign=middle;whiteSpace=wrap;rounded=0;" parent="1" vertex="1">
          <mxGeometry x="277.99" y="480" width="60" height="30" as="geometry" />
        </mxCell>
        <mxCell id="lqJwBGlJz0aM91r_tTBh-9" value="Speech" style="text;html=1;align=center;verticalAlign=middle;whiteSpace=wrap;rounded=0;" parent="1" vertex="1">
          <mxGeometry x="290" y="-40" width="60" height="30" as="geometry" />
        </mxCell>
        <mxCell id="lqJwBGlJz0aM91r_tTBh-10" value="Bot" style="text;html=1;align=center;verticalAlign=middle;whiteSpace=wrap;rounded=0;" parent="1" vertex="1">
          <mxGeometry x="278" y="165.5" width="60" height="30" as="geometry" />
        </mxCell>
        <mxCell id="lqJwBGlJz0aM91r_tTBh-11" value="" style="image;aspect=fixed;html=1;points=[];align=center;fontSize=12;image=img/lib/azure2/app_services/App_Services.svg;" parent="1" vertex="1">
          <mxGeometry x="60" y="98" width="50" height="50" as="geometry" />
        </mxCell>
        <mxCell id="lqJwBGlJz0aM91r_tTBh-12" value="App Service" style="text;html=1;align=center;verticalAlign=middle;whiteSpace=wrap;rounded=0;" parent="1" vertex="1">
          <mxGeometry x="47.5" y="140" width="75" height="30" as="geometry" />
        </mxCell>
        <mxCell id="lqJwBGlJz0aM91r_tTBh-15" value="&lt;div&gt;CLU&amp;nbsp;&lt;/div&gt;&lt;div&gt;(extract Data)&lt;/div&gt;" style="text;html=1;align=center;verticalAlign=middle;whiteSpace=wrap;rounded=0;" parent="1" vertex="1">
          <mxGeometry x="420" y="10" width="80.5" height="30" as="geometry" />
        </mxCell>
        <mxCell id="lqJwBGlJz0aM91r_tTBh-16" value="" style="endArrow=classic;html=1;rounded=0;strokeWidth=2;exitX=1.023;exitY=0.608;exitDx=0;exitDy=0;exitPerimeter=0;" parent="1" source="lqJwBGlJz0aM91r_tTBh-5" edge="1">
          <mxGeometry width="50" height="50" relative="1" as="geometry">
            <mxPoint x="367" y="-54" as="sourcePoint" />
            <mxPoint x="460.0621917808221" y="3.9999999999997726" as="targetPoint" />
          </mxGeometry>
        </mxCell>
        <mxCell id="lqJwBGlJz0aM91r_tTBh-17" value="" style="endArrow=classic;html=1;rounded=0;entryX=1;entryY=0.25;entryDx=0;entryDy=0;strokeWidth=2;exitX=0;exitY=1;exitDx=0;exitDy=0;" parent="1" source="lqJwBGlJz0aM91r_tTBh-15" target="lqJwBGlJz0aM91r_tTBh-1" edge="1">
          <mxGeometry width="50" height="50" relative="1" as="geometry">
            <mxPoint x="640" y="110" as="sourcePoint" />
            <mxPoint x="370" y="150" as="targetPoint" />
          </mxGeometry>
        </mxCell>
        <mxCell id="lqJwBGlJz0aM91r_tTBh-19" value="" style="shape=image;verticalLabelPosition=bottom;labelBackgroundColor=#ffffff;verticalAlign=top;aspect=fixed;imageAspect=0;image=data:image/svg+xml,PHN2ZyB4bWxuczpkYz0iaHR0cDovL3B1cmwub3JnL2RjL2VsZW1lbnRzLzEuMS8iIHhtbG5zOmNjPSJodHRwOi8vY3JlYXRpdmVjb21tb25zLm9yZy9ucyMiIHhtbG5zOnJkZj0iaHR0cDovL3d3dy53My5vcmcvMTk5OS8wMi8yMi1yZGYtc3ludGF4LW5zIyIgeG1sbnM6c3ZnPSJodHRwOi8vd3d3LnczLm9yZy8yMDAwL3N2ZyIgeG1sbnM9Imh0dHA6Ly93d3cudzMub3JnLzIwMDAvc3ZnIiB4bWxuczpzb2RpcG9kaT0iaHR0cDovL3NvZGlwb2RpLnNvdXJjZWZvcmdlLm5ldC9EVEQvc29kaXBvZGktMC5kdGQiIHhtbG5zOmlua3NjYXBlPSJodHRwOi8vd3d3Lmlua3NjYXBlLm9yZy9uYW1lc3BhY2VzL2lua3NjYXBlIiB2ZXJzaW9uPSIxLjEiIGlkPSJzdmc4MjQ1OSIgaW5rc2NhcGU6dmVyc2lvbj0iMC45Mi4zICgyNDA1NTQ2LCAyMDE4LTAzLTExKSIgc29kaXBvZGk6ZG9jbmFtZT0ia2V5X3ZhdWx0LnN2ZyIgeD0iMHB4IiB5PSIwcHgiIHZpZXdCb3g9IjAgMCA4OS42OSAxMDAuMTEiIHN0eWxlPSJlbmFibGUtYmFja2dyb3VuZDpuZXcgMCAwIDg5LjY5IDEwMC4xMTsiIHhtbDpzcGFjZT0icHJlc2VydmUiPjxtZXRhZGF0YSBpZD0ibWV0YWRhdGEyMzQ4Ij48cmRmOlJERj48Y2M6V29yayByZGY6YWJvdXQ9IiI+PGRjOmZvcm1hdD5pbWFnZS9zdmcreG1sPC9kYzpmb3JtYXQ+PGRjOnR5cGUgcmRmOnJlc291cmNlPSJodHRwOi8vcHVybC5vcmcvZGMvZGNtaXR5cGUvU3RpbGxJbWFnZSIvPjxkYzp0aXRsZS8+PC9jYzpXb3JrPjwvcmRmOlJERj48L21ldGFkYXRhPjxkZWZzIGlkPSJkZWZzMjM0NiIvPiYjeGE7PGZpbHRlciBpZD0iZmlsdGVyXzIiPiYjeGE7CTxmZUdhdXNzaWFuQmx1ciBpZD0iZmVHYXVzc2lhbkJsdXI4MjQzMiIgc3RkRGV2aWF0aW9uPSIyIi8+JiN4YTs8L2ZpbHRlcj4mI3hhOzxzb2RpcG9kaTpuYW1lZHZpZXcgYm9yZGVyY29sb3I9IiM2NjY2NjYiIGJvcmRlcm9wYWNpdHk9IjEiIGZpdC1tYXJnaW4tYm90dG9tPSIwIiBmaXQtbWFyZ2luLWxlZnQ9IjAiIGZpdC1tYXJnaW4tcmlnaHQ9IjAiIGZpdC1tYXJnaW4tdG9wPSIwIiBncmlkdG9sZXJhbmNlPSIxMCIgZ3VpZGV0b2xlcmFuY2U9IjEwIiBpZD0ibmFtZWR2aWV3ODI0NjEiIGlua3NjYXBlOmN1cnJlbnQtbGF5ZXI9InN2ZzgyNDU5IiBpbmtzY2FwZTpjeD0iNzMuODY0NzI3IiBpbmtzY2FwZTpjeT0iNTIuMzM5MjAxIiBpbmtzY2FwZTpwYWdlb3BhY2l0eT0iMCIgaW5rc2NhcGU6cGFnZXNoYWRvdz0iMiIgaW5rc2NhcGU6d2luZG93LWhlaWdodD0iMTAxNyIgaW5rc2NhcGU6d2luZG93LW1heGltaXplZD0iMSIgaW5rc2NhcGU6d2luZG93LXdpZHRoPSIxOTIwIiBpbmtzY2FwZTp3aW5kb3cteD0iLTgiIGlua3NjYXBlOndpbmRvdy15PSItOCIgaW5rc2NhcGU6em9vbT0iMy42OTA2MTY0IiBvYmplY3R0b2xlcmFuY2U9IjEwIiBwYWdlY29sb3I9IiNmZmZmZmYiIHNob3dncmlkPSJmYWxzZSI+JiN4YTsJPC9zb2RpcG9kaTpuYW1lZHZpZXc+JiN4YTsmI3hhOzxwYXRoIGlkPSJwYXRoODI0NDUiIGlua3NjYXBlOmNvbm5lY3Rvci1jdXJ2YXR1cmU9IjAiIHN0eWxlPSJmaWxsOiM3RkJBMDA7IiBkPSJNODkuNjksNTUuMjZjMC0xNC42Mi03LTI3LjQzLTE3LjYxLTM1LjY0ICBjMCwwLjQsMCwxLDAsMS40YzAsNC40MS0xLjIxLDguNjEtMy4wMSwxMi4yMWM1LjIxLDUuODEsOC40MSwxMy40Miw4LjQxLDIxLjgzYzAsMTguMDItMTQuNjEsMzIuNjMtMzIuNjMsMzIuNjMgIFMxMi4yMSw3My4wOCwxMi4yMSw1NS4wNmMwLTkuMDEsMy42MS0xNy4wMiw5LjQxLTIzLjAzYy0xLjYtMy40LTIuNi03LjItMi42LTExLjIxYzAtMC44LDAtMS44LDAuMi0yLjZDNy42MSwyNi4yMywwLDM5Ljg0LDAsNTUuMDYgIGMwLDI1LjAyLDIwLjAyLDQ1LjA1LDQ0Ljg1LDQ1LjA1QzY5LjY3LDEwMC4xMSw4OS42OSw4MC4wOCw4OS42OSw1NS4yNnoiLz4mI3hhOyYjeGE7PHBhdGggaWQ9InBhdGg4MjQ1MyIgaW5rc2NhcGU6Y29ubmVjdG9yLWN1cnZhdHVyZT0iMCIgc3R5bGU9ImZpbGw6I0ZDRDExNjsiIGQ9Ik00NS40NSwwQzM0LjA0LDAsMjQuODMsOS4yMSwyNC44MywyMC42MiAgYzAsOS40MSw2LjIxLDE3LjIyLDE0LjgyLDE5LjgydjIwLjQzaC05LjYxdjEwLjQxaDkuNjF2Ny42MWgxMS40MVY0MC4yNGM4LjYxLTIuNCwxNC44MS0xMC40MSwxNC44MS0xOS44MiAgQzY2LjA3LDkuMjEsNTYuODYsMCw0NS40NSwweiBNNDUuNDUsMTAuODFjNS40MSwwLDkuODEsNC40MSw5LjgxLDkuODFjMCw1LjQxLTQuNCw5LjgxLTkuODEsOS44MWMtNS40LDAtOS44MS00LjQtOS44MS05LjgxICBDMzUuNjQsMTUuMjIsNDAuMDUsMTAuODEsNDUuNDUsMTAuODF6Ii8+JiN4YTs8L3N2Zz4=;" parent="1" vertex="1">
          <mxGeometry x="525.38" y="105.5" width="54" height="60" as="geometry" />
        </mxCell>
        <mxCell id="lqJwBGlJz0aM91r_tTBh-20" value="Key Value" style="text;html=1;align=center;verticalAlign=middle;whiteSpace=wrap;rounded=0;" parent="1" vertex="1">
          <mxGeometry x="519.38" y="160" width="60" height="30" as="geometry" />
        </mxCell>
        <mxCell id="lqJwBGlJz0aM91r_tTBh-21" value="" style="endArrow=classic;html=1;rounded=0;entryX=1.053;entryY=0.637;entryDx=0;entryDy=0;exitX=0;exitY=0.5;exitDx=0;exitDy=0;strokeWidth=2;entryPerimeter=0;" parent="1" source="lqJwBGlJz0aM91r_tTBh-19" target="lqJwBGlJz0aM91r_tTBh-1" edge="1">
          <mxGeometry width="50" height="50" relative="1" as="geometry">
            <mxPoint x="370" y="290" as="sourcePoint" />
            <mxPoint x="420" y="240" as="targetPoint" />
          </mxGeometry>
        </mxCell>
        <mxCell id="lqJwBGlJz0aM91r_tTBh-22" value="" style="endArrow=classic;html=1;rounded=0;exitX=0.166;exitY=0.83;exitDx=0;exitDy=0;strokeWidth=2;entryX=1;entryY=0;entryDx=0;entryDy=0;exitPerimeter=0;" parent="1" source="lqJwBGlJz0aM91r_tTBh-20" target="iJa_NErr--u8IuQi-Ut--1" edge="1">
          <mxGeometry width="50" height="50" relative="1" as="geometry">
            <mxPoint x="540" y="400" as="sourcePoint" />
            <mxPoint x="325.6787499999998" y="284.28750000000014" as="targetPoint" />
          </mxGeometry>
        </mxCell>
        <mxCell id="lqJwBGlJz0aM91r_tTBh-27" value="" style="endArrow=classic;startArrow=none;html=1;rounded=0;exitX=0.5;exitY=1;exitDx=0;exitDy=0;entryX=0.5;entryY=0;entryDx=0;entryDy=0;strokeWidth=2;startFill=0;" parent="1" source="lqJwBGlJz0aM91r_tTBh-10" edge="1">
          <mxGeometry width="50" height="50" relative="1" as="geometry">
            <mxPoint x="440" y="270" as="sourcePoint" />
            <mxPoint x="307.9949999999999" y="283.75" as="targetPoint" />
          </mxGeometry>
        </mxCell>
        <mxCell id="lqJwBGlJz0aM91r_tTBh-28" value="" style="sketch=0;pointerEvents=1;shadow=0;dashed=0;html=1;strokeColor=none;fillColor=#434445;aspect=fixed;labelPosition=center;verticalLabelPosition=bottom;verticalAlign=top;align=center;outlineConnect=0;shape=mxgraph.vvd.nsx_dashboard;" parent="1" vertex="1">
          <mxGeometry x="460" y="376.5" width="50" height="46.5" as="geometry" />
        </mxCell>
        <mxCell id="lqJwBGlJz0aM91r_tTBh-30" value="" style="endArrow=classic;html=1;rounded=0;exitX=1;exitY=0.5;exitDx=0;exitDy=0;strokeWidth=2;entryX=0;entryY=0.5;entryDx=0;entryDy=0;" parent="1" source="AcxdMaKK0mU5kZiv2lnr-31" target="iJa_NErr--u8IuQi-Ut--2" edge="1">
          <mxGeometry width="50" height="50" relative="1" as="geometry">
            <mxPoint x="27.5" y="340" as="sourcePoint" />
            <mxPoint x="-12.5" y="330" as="targetPoint" />
          </mxGeometry>
        </mxCell>
        <mxCell id="lqJwBGlJz0aM91r_tTBh-31" value="CI build Container Image API" style="text;html=1;align=center;verticalAlign=middle;whiteSpace=wrap;rounded=0;" parent="1" vertex="1">
          <mxGeometry x="-82.5" y="293.83" width="122.5" height="30" as="geometry" />
        </mxCell>
        <mxCell id="lqJwBGlJz0aM91r_tTBh-33" value="Dashboard" style="text;html=1;align=center;verticalAlign=middle;whiteSpace=wrap;rounded=0;" parent="1" vertex="1">
          <mxGeometry x="455" y="423" width="60" height="30" as="geometry" />
        </mxCell>
        <mxCell id="lqJwBGlJz0aM91r_tTBh-14" value="Hosted" style="text;html=1;align=center;verticalAlign=middle;whiteSpace=wrap;rounded=0;" parent="1" vertex="1">
          <mxGeometry x="170" y="98" width="60" height="30" as="geometry" />
        </mxCell>
        <mxCell id="lqJwBGlJz0aM91r_tTBh-35" value="" style="endArrow=classic;html=1;rounded=0;exitX=0;exitY=0.5;exitDx=0;exitDy=0;strokeWidth=2;" parent="1" source="lqJwBGlJz0aM91r_tTBh-1" edge="1">
          <mxGeometry width="50" height="50" relative="1" as="geometry">
            <mxPoint x="150" y="100" as="sourcePoint" />
            <mxPoint x="120" y="123" as="targetPoint" />
          </mxGeometry>
        </mxCell>
        <mxCell id="lqJwBGlJz0aM91r_tTBh-36" value="" style="shape=image;verticalLabelPosition=bottom;labelBackgroundColor=#ffffff;verticalAlign=top;aspect=fixed;imageAspect=0;image=data:image/svg+xml,PHN2ZyB4bWxuczpkYz0iaHR0cDovL3B1cmwub3JnL2RjL2VsZW1lbnRzLzEuMS8iIHhtbG5zOmNjPSJodHRwOi8vY3JlYXRpdmVjb21tb25zLm9yZy9ucyMiIHhtbG5zOnJkZj0iaHR0cDovL3d3dy53My5vcmcvMTk5OS8wMi8yMi1yZGYtc3ludGF4LW5zIyIgeG1sbnM6c3ZnPSJodHRwOi8vd3d3LnczLm9yZy8yMDAwL3N2ZyIgeG1sbnM9Imh0dHA6Ly93d3cudzMub3JnLzIwMDAvc3ZnIiB4bWxuczpzb2RpcG9kaT0iaHR0cDovL3NvZGlwb2RpLnNvdXJjZWZvcmdlLm5ldC9EVEQvc29kaXBvZGktMC5kdGQiIHhtbG5zOmlua3NjYXBlPSJodHRwOi8vd3d3Lmlua3NjYXBlLm9yZy9uYW1lc3BhY2VzL2lua3NjYXBlIiB2ZXJzaW9uPSIxLjEiIGlkPSJzdmc5NzA4NCIgaW5rc2NhcGU6dmVyc2lvbj0iMC45Mi4zICgyNDA1NTQ2LCAyMDE4LTAzLTExKSIgc29kaXBvZGk6ZG9jbmFtZT0ic3FsX2RhdGFiYXNlLnN2ZyIgeD0iMHB4IiB5PSIwcHgiIHZpZXdCb3g9IjAgMCA3NS41MiAxMDAuMTEiIHhtbDpzcGFjZT0icHJlc2VydmUiIHdpZHRoPSI3NS41MTk5OTciIGhlaWdodD0iMTAwLjExIj48bWV0YWRhdGEgaWQ9Im1ldGFkYXRhMTcyNiI+PHJkZjpSREY+PGNjOldvcmsgcmRmOmFib3V0PSIiPjxkYzpmb3JtYXQ+aW1hZ2Uvc3ZnK3htbDwvZGM6Zm9ybWF0PjxkYzp0eXBlIHJkZjpyZXNvdXJjZT0iaHR0cDovL3B1cmwub3JnL2RjL2RjbWl0eXBlL1N0aWxsSW1hZ2UiLz48ZGM6dGl0bGUvPjwvY2M6V29yaz48L3JkZjpSREY+PC9tZXRhZGF0YT48ZGVmcyBpZD0iZGVmczE3MjQiPiYjeGE7CSYjeGE7JiN4YTsJJiN4YTsmI3hhOwkmI3hhOyYjeGE7CSYjeGE7JiN4YTsJJiN4YTsmI3hhOwkmI3hhOyYjeGE7CSYjeGE7JiN4YTsJJiN4YTsmI3hhOwkmI3hhOyYjeGE7CQkmI3hhOwkmI3hhOwkJJiN4YTsJJiN4YTsJCSYjeGE7CSYjeGE7CQkmI3hhOwkmI3hhOwkJJiN4YTsJJiN4YTsJCSYjeGE7CSYjeGE7CQkmI3hhOwkmI3hhOwkJJiN4YTsJPC9kZWZzPiYjeGE7PGZpbHRlciBpZD0iZmlsdGVyXzIiPiYjeGE7CTxmZUdhdXNzaWFuQmx1ciBpZD0iZmVHYXVzc2lhbkJsdXI5NzAwMSIgc3RkRGV2aWF0aW9uPSIyIi8+JiN4YTs8L2ZpbHRlcj4mI3hhOzxzb2RpcG9kaTpuYW1lZHZpZXcgYm9yZGVyY29sb3I9IiM2NjY2NjYiIGJvcmRlcm9wYWNpdHk9IjEiIGZpdC1tYXJnaW4tYm90dG9tPSIwIiBmaXQtbWFyZ2luLWxlZnQ9IjAiIGZpdC1tYXJnaW4tcmlnaHQ9IjAiIGZpdC1tYXJnaW4tdG9wPSIwIiBncmlkdG9sZXJhbmNlPSIxMCIgZ3VpZGV0b2xlcmFuY2U9IjEwIiBpZD0ibmFtZWR2aWV3OTcwODYiIGlua3NjYXBlOmN1cnJlbnQtbGF5ZXI9InN2Zzk3MDg0IiBpbmtzY2FwZTpjeD0iLTQ2LjkyMDI2NSIgaW5rc2NhcGU6Y3k9IjM4LjczMTY2NiIgaW5rc2NhcGU6cGFnZW9wYWNpdHk9IjAiIGlua3NjYXBlOnBhZ2VzaGFkb3c9IjIiIGlua3NjYXBlOndpbmRvdy1oZWlnaHQ9IjEwMTciIGlua3NjYXBlOndpbmRvdy1tYXhpbWl6ZWQ9IjEiIGlua3NjYXBlOndpbmRvdy13aWR0aD0iMTkyMCIgaW5rc2NhcGU6d2luZG93LXg9Ii04IiBpbmtzY2FwZTp3aW5kb3cteT0iLTgiIGlua3NjYXBlOnpvb209IjUuMjE5MzE5NyIgb2JqZWN0dG9sZXJhbmNlPSIxMCIgcGFnZWNvbG9yPSIjZmZmZmZmIiBzaG93Z3JpZD0iZmFsc2UiPiYjeGE7CTwvc29kaXBvZGk6bmFtZWR2aWV3PiYjeGE7JiN4YTs8cGF0aCBpZD0icGF0aDk3MDE0IiBpbmtzY2FwZTpjb25uZWN0b3ItY3VydmF0dXJlPSIwIiBzdHlsZT0iZmlsbDojMDA3MmM2IiBkPSJtIDAsMTMuNjggdiA3Mi43NSBjIDAsNy41NSAxNi45MSwxMy42OCAzNy43NiwxMy42OCBWIDEzLjY4IGMgMCwwIC0zNy43NiwwIC0zNy43NiwwIHoiLz4mI3hhOyYjeGE7PHBhdGggaWQ9InBhdGg5NzAyMiIgaW5rc2NhcGU6Y29ubmVjdG9yLWN1cnZhdHVyZT0iMCIgc3R5bGU9ImZpbGw6IzAwNzJjNiIgZD0ibSAzNy4yNCwxMDAuMTEgaCAwLjUyIGMgMjAuODUsMCAzNy43NiwtNi4xMyAzNy43NiwtMTMuNjggViAxMy42OCBIIDM3LjI0IFoiLz4mI3hhOyYjeGE7PHBhdGggaWQ9InBhdGg5NzAzMCIgaW5rc2NhcGU6Y29ubmVjdG9yLWN1cnZhdHVyZT0iMCIgc3R5bGU9ImZpbGw6I2ZmZmZmZjtmaWxsLW9wYWNpdHk6MC4xNSIgZD0ibSAzNy4yNCwxMDAuMTEgaCAwLjUyIGMgMjAuODUsMCAzNy43NiwtNi4xMyAzNy43NiwtMTMuNjggViAxMy42OCBIIDM3LjI0IFoiLz4mI3hhOyYjeGE7PHBhdGggaWQ9InBhdGg5NzAzOCIgaW5rc2NhcGU6Y29ubmVjdG9yLWN1cnZhdHVyZT0iMCIgc3R5bGU9ImZpbGw6I2ZmZmZmZiIgZD0ibSA3NS41MiwxMy42OCBjIDAsNy41NSAtMTYuOTEsMTMuNjggLTM3Ljc2LDEzLjY4IEMgMTYuOTEsMjcuMzYgMCwyMS4yMyAwLDEzLjY4IDAsNi4xMyAxNi45MSwwIDM3Ljc2LDAgNTguNjEsMCA3NS41Miw2LjEzIDc1LjUyLDEzLjY4IFoiLz4mI3hhOyYjeGE7PHBhdGggaWQ9InBhdGg5NzA0NiIgaW5rc2NhcGU6Y29ubmVjdG9yLWN1cnZhdHVyZT0iMCIgc3R5bGU9ImZpbGw6IzdmYmEwMCIgZD0ibSA2Ny44LDEyLjg5IGMgMCw0Ljk5IC0xMy40NSw5LjAzIC0zMC4wNCw5LjAzIC0xNi41OSwwIC0zMC4wNCwtNC4wNCAtMzAuMDQsLTkuMDMgMCwtNC45OCAxMy40NSwtOS4wMiAzMC4wNCwtOS4wMiAxNi41OSwwIDMwLjA0LDQuMDQgMzAuMDQsOS4wMiB6Ii8+JiN4YTsmI3hhOzxwYXRoIGlkPSJwYXRoOTcwNTQiIGlua3NjYXBlOmNvbm5lY3Rvci1jdXJ2YXR1cmU9IjAiIHN0eWxlPSJmaWxsOiNiOGQ0MzIiIGQ9Ik0gNjEuNTEsMTguNDEgQyA2NS40NCwxNi44OCA2Ny44LDE0Ljk3IDY3LjgsMTIuOSA2Ny44LDcuOTEgNTQuMzUsMy44NyAzNy43NiwzLjg3IDIxLjE3LDMuODcgNy43Miw3LjkxIDcuNzIsMTIuOSBjIDAsMi4wNyAyLjM2LDMuOTggNi4zLDUuNTEgNS40OSwtMi4xNCAxNC4wNywtMy41MSAyMy43NCwtMy41MSA5LjY3LDAgMTguMjUsMS4zNyAyMy43NSwzLjUxIHoiLz4mI3hhOyYjeGE7PHBhdGggaWQ9InBhdGg5NzA2MiIgaW5rc2NhcGU6Y29ubmVjdG9yLWN1cnZhdHVyZT0iMCIgc3R5bGU9ImZpbGw6I2ZmZmZmZiIgZD0ibSAyNS43Nyw2NC4xOCBjIDAsMi4yNiAtMC44Miw0LjAxIC0yLjQ2LDUuMjUgLTEuNjQsMS4yNCAtMy45LDEuODcgLTYuNzksMS44NyAtMi40NiwwIC00LjUyLC0wLjQ1IC02LjE3LC0xLjMzIHYgLTUuMzIgYyAxLjksMS42MSA0LDIuNDIgNi4zLDIuNDIgMS4xLDAgMS45NiwtMC4yMiAyLjU3LC0wLjY2IDAuNiwtMC40NCAwLjksLTEuMDMgMC45LC0xLjc2IDAsLTAuNzIgLTAuMjksLTEuMzUgLTAuODcsLTEuODggLTAuNTgsLTAuNTMgLTEuNzcsLTEuMjIgLTMuNTUsLTIuMDYgLTMuNjMsLTEuNzEgLTUuNDUsLTQuMDQgLTUuNDUsLTYuOTggMCwtMi4xNCAwLjc5LC0zLjg1IDIuMzgsLTUuMTQgMS41OCwtMS4yOSAzLjY5LC0xLjk0IDYuMzEsLTEuOTQgMi4zMywwIDQuMjUsMC4zMSA1Ljc5LDAuOTEgdiA0Ljk3IGMgLTEuNjEsLTEuMTEgLTMuNDQsLTEuNjYgLTUuNDksLTEuNjYgLTEuMDMsMCAtMS44NCwwLjIyIC0yLjQ0LDAuNjYgLTAuNiwwLjQzIC0wLjksMS4wMiAtMC45LDEuNzUgMCwwLjc1IDAuMjQsMS4zNyAwLjczLDEuODUgMC40OCwwLjQ4IDEuNDcsMS4wOCAyLjk2LDEuNzkgMi4yMywxLjA1IDMuODIsMi4xMiA0Ljc2LDMuMjEgMC45NSwxLjA4IDEuNDIsMi40NCAxLjQyLDQuMDUgeiIvPiYjeGE7JiN4YTs8cGF0aCBpZD0icGF0aDk3MDcwIiBpbmtzY2FwZTpjb25uZWN0b3ItY3VydmF0dXJlPSIwIiBzdHlsZT0iZmlsbDojZmZmZmZmIiBkPSJtIDUxLjQxLDU4Ljc5IGMgMCwyLjgxIC0wLjY0LDUuMjQgLTEuOTEsNy4zIC0xLjI4LDIuMDYgLTMuMDcsMy41IC01LjM5LDQuMzQgbCA2LjkyLDYuNCBIIDQ0LjA1IEwgMzkuMTEsNzEuMjkgQyAzNyw3MS4yMSAzNS4wOSw3MC42NSAzMy4zOSw2OS42MSBjIC0xLjcsLTEuMDQgLTMuMDIsLTIuNDcgLTMuOTQsLTQuMjggLTAuOTMsLTEuODEgLTEuMzksLTMuODMgLTEuMzksLTYuMDUgMCwtMi40NyAwLjUsLTQuNjggMS41LC02LjYxIDEuMDEsLTEuOTMgMi40MSwtMy40MiA0LjIzLC00LjQ2IDEuODIsLTEuMDQgMy45LC0xLjU2IDYuMjUsLTEuNTYgMi4xOSwwIDQuMTYsMC41IDUuODksMS41MSAxLjczLDEuMDEgMy4wOCwyLjQ0IDQuMDQsNC4zIDAuOTYsMS44NiAxLjQ0LDMuOTcgMS40NCw2LjMzIHogbSAtNS42NSwwLjMgYyAwLC0yLjQxIC0wLjUyLC00LjMyIC0xLjU4LC01LjcyIC0xLjA1LC0xLjQgLTIuNDksLTIuMSAtNC4zMiwtMi4xIC0xLjg2LDAgLTMuMzUsMC43IC00LjQ3LDIuMSAtMS4xMiwxLjQxIC0xLjY4LDMuMjggLTEuNjgsNS42MiAwLDIuMzMgMC41NSw0LjE5IDEuNjUsNS41OCAxLjA5LDEuMzkgMi41NSwyLjA4IDQuMzYsMi4wOCAxLjg2LDAgMy4zMiwtMC42NyA0LjQxLC0yLjAyIDEuMDksLTEuMzQgMS42MywtMy4xOSAxLjYzLC01LjU0IHoiLz4mI3hhOyYjeGE7PHBhdGggaWQ9InBhdGg5NzA3OCIgaW5rc2NhcGU6Y29ubmVjdG9yLWN1cnZhdHVyZT0iMCIgc3R5bGU9ImZpbGw6I2ZmZmZmZiIgZD0iTSA2OS41NCw3MC44OCBIIDU1LjM1IFYgNDcuMDUgaCA1LjM3IHYgMTkuNDcgaCA4LjgyIHoiLz4mI3hhOzwvc3ZnPg==;" parent="1" vertex="1">
          <mxGeometry x="287.49" y="423" width="41" height="53" as="geometry" />
        </mxCell>
        <mxCell id="lqJwBGlJz0aM91r_tTBh-39" value="" style="endArrow=classic;startArrow=classic;html=1;rounded=0;entryX=0.5;entryY=0;entryDx=0;entryDy=0;exitX=0.5;exitY=1;exitDx=0;exitDy=0;strokeWidth=2;" parent="1" source="lqJwBGlJz0aM91r_tTBh-40" target="lqJwBGlJz0aM91r_tTBh-36" edge="1">
          <mxGeometry width="50" height="50" relative="1" as="geometry">
            <mxPoint x="570" y="440" as="sourcePoint" />
            <mxPoint x="620" y="390" as="targetPoint" />
          </mxGeometry>
        </mxCell>
        <mxCell id="lqJwBGlJz0aM91r_tTBh-40" value="API" style="text;html=1;align=center;verticalAlign=middle;whiteSpace=wrap;rounded=0;" parent="1" vertex="1">
          <mxGeometry x="277.99" y="330" width="60" height="30" as="geometry" />
        </mxCell>
        <mxCell id="lqJwBGlJz0aM91r_tTBh-41" value="Holt Secret" style="text;html=1;align=center;verticalAlign=middle;whiteSpace=wrap;rounded=0;" parent="1" vertex="1">
          <mxGeometry x="379.38" y="110" width="110.62" height="30" as="geometry" />
        </mxCell>
        <mxCell id="lqJwBGlJz0aM91r_tTBh-42" value="Holt Secret" style="text;html=1;align=center;verticalAlign=middle;whiteSpace=wrap;rounded=0;" parent="1" vertex="1">
          <mxGeometry x="404.94" y="230" width="110.62" height="30" as="geometry" />
        </mxCell>
        <mxCell id="lqJwBGlJz0aM91r_tTBh-44" value="" style="endArrow=classic;startArrow=classic;html=1;rounded=0;strokeWidth=2;exitX=1;exitY=0.5;exitDx=0;exitDy=0;entryX=-0.1;entryY=0.588;entryDx=0;entryDy=0;entryPerimeter=0;" parent="1" target="lqJwBGlJz0aM91r_tTBh-28" edge="1">
          <mxGeometry width="50" height="50" relative="1" as="geometry">
            <mxPoint x="334.8699999999999" y="310.625" as="sourcePoint" />
            <mxPoint x="720" y="350" as="targetPoint" />
          </mxGeometry>
        </mxCell>
        <mxCell id="iJa_NErr--u8IuQi-Ut--1" value="" style="shape=image;verticalLabelPosition=bottom;labelBackgroundColor=default;verticalAlign=top;aspect=fixed;imageAspect=0;image=data:image/webp,UklGRuYoAABXRUJQVlA4TNooAAAvacIxEDWHg7aRJCnmD3u+1fUBiIgJ6JL+pM2zwRsKw4q+HUI33AzFBlKxM7ytNUwJ0b2aU6lgsa0pa99OiL6wjti3ujCrL0etT40KXpq0f6lv6jeCChcGdqAvB6xtOJhSbfZVlvJHl+F6dDnltUt/8t84zITpAoBTkiX92T6vMiOSpYyofD5lq20nw45kGJWRlc5IFp6tsk5HRnxx7/fdjHdurSKbb9UPbVY1o929shltO3fdtW1ubdvG0raZvbJt29bYts2arW2rzvwA845yGGPu+hwjxp5p5jmzVYyttu/uG+/qvNV4qAsAqKS59uT3332AlV0cMOAUwqGxMFBxPWvl3NeuuwzfkiRZkiTZltxZ9CKqaresW/f/f6ZLrq3t2B4js9////wVxJ24A1tTpwCPrBI4tguwbVyjOLk3JUZuJEmSmwaIQfRUVS/6qDO792tb27Zj25VF6TvepluxsQBhfoymWoLW4PltG+HfslsY/njf67nu63n+92nqHsi2XVNjKtu2bdu2zYGMO87Ztm3btm3bdl+27RrKtl1D2TXMbBvf9mXbtm192abc2rZV10nvvMY63YzOe2KWnpg+M3Pq0NV4DAmybYVtKyw6SLYl8ZEE+nQdlQDJtmlXde6NnTyu2Ladb9u2bdu2bdu2bdu2sbYktpEcSaLqAO97XXdVV+Oefi82+P8/3WWez3X6tqq6oydqunq9pqPvajpaNYFWTVfLp/n/r577NtUdPeb0bWWZF3PW+9//u/20TnEVU07fNtcEeqOuJz/re6J+R7xf/a7wgd7v/V7yrJqu3qhq6ebSqk/Rtxx2G67ydWdtoG/ez7eq77HaQN5UtXSHw8IwTauyYYtru/IAxcdYo1e3I2q6+qCiYYvpWBbWp1X5ur8ukP/PhKquJ3yG2kD+O33ba1HbNNpVoYPhqradqwvE18JG9nJOJDnVBqrKt/MOpw3TrArdHK729RIFP/ISVFXbLhc6GKFVWc024PTt/D8hUBsIeGoCRX1OX8/bWQ7QqSpafuAHKa6mq8j5wZ1TQGXTDtCoyjxfWN2xfztv5Kq7Brmqjv0r9WIRbarAyiFn2x//V6NX3THIOX1/XGC3IbpUeSN2XcSHqm4rwsrrvosmVeigOX17/wG+VFXbEOVs2XuHnZP0qHLPNz3YR6vyjRdlnm+kReng6K1s+m0IH0sGqvJVI1BZ11t6cfRmIUVuzHG27NfXQ1TVUj6L0zcfW9m0n0VuzM5CRv2ytRr91yqFDpa4OVsKpUrfUFtly5TUYlUWMur3bYHVIy55lXl+MgsZzft27NHWq2yaxqLc8xtdtP6rDGTUb9vLR3efmCobxpNQRdOhVl73x60O1TEDGfXrh6P92uQ/qVNFw6FR5sWX4Z2d5gxk1K8b/7OJFKu8EWAq8yIjutuRlawk7Suvu80oq3mykFG9fjiaz48UOlhSuwOM6GZHBlJajSpvuIeSVe45H6ms6hnR9Y4MpLQSRZ0P4TIvNHKl1Ui72wMZSEklqqwevpfCSj1oTEqqSBZSXEWV1uFzG4XSGpBUWgtUUFKJtLvZkYEUV1ClXvhdn6SkFuArrkTaXe/IQIoqqBIvfKmPVFINZBWXIyO8PpDJ/C89K6kEIFpUURkF50PJFyouRbKQkT9+uSk3FVfA9ygqIVa9NxrUyB5/XJmZistAgJdLZb4iF7FqvdGgRvbw46USW3EpUEyRE7Foo9GgRnb/5SuEFZUhkRWVoMHwckKlsJSxsNFoUCN52LmOzkHDS2kzCt2MRe2NfnUD34wuNZL7nTeI33AXfKNCB7EovdGgRnL343vsVuimxsXhZMzKaDSoEd/tHDKRFTqJghx2ZvinJzKQEd/unFFK5HAaBzmc5EWBnclCRnR7UONQ8nEcdnJXYGWGf3IiBUBvWF04WAMNOwdyiSvMerkgiHdkRLc78x4s6ZwvCfaBCIJpnQO5xAjvgiAo5ciIbnauXCeHlRqQuVTWK7Abcgrs5G6YlWl7WpECYIcETOwcyCUGeC4BJRwZ0fXOy+Rr4pYbZjfms1stbU8qMpB2NwcrEt8wq6EIu9mShbS7Prgu8w0zG5vR2fTGbjboLvIXfAG5SwVmN1raHldkJb0azm40Nq05YVUv1B2F4moqMJovoCQDyFwhBspDexgDC2A97ISDcFg7yCzWtLs62KtW+3DTK616N7zSjBq5sc9s2hphlnsSeXYqMLs7UJ7N6GlzXKEOwqENbID78Cs4CsoVa0Z4dXAfdnuaVeu+qqwFS07NxC/GuIz5Jr3MoGLJYTZPozqb3tLmqELXUP0pKAmb4GtwGJQp1ozw8uCTrGTXG69eaWVNgZWqd2GFmZi6JIybsd8k2QydCGi0xmE0dr1Bx641cNhYi66xwWYgSCjCjfDiYN5DyVB21ljVzqo0w900auDGPAvG04Q5WdCCdgh4FLQsOfTuQWjZ9C52Vq2nzaFCE9SAtyEU5wofShayaZ2FDYcpbSbXaYNMWJCFbOBg4BDgEdCypsDoVkeKUkEj+BOKdU6O4JhZWWdRumFGU90Ly8/U1AVhwCYtfrq7joMglsAF+BQ0rCnQu2tSmZX1tD4E9EBh+BaKdSO4OLltO/2my2EsamdWh0K3GTlwO2S8mrIifSouGgHGF+ATULNuzmEO85tg87KUhfW0OgTUgAdcD0U7Mxt1GCqxaINZ7SxaV9pIS16q2QwRg2suGgJ2TRJNatbY9QHFuxK/f3dnZiOtDhVqoF8o3pnVUeCPFseZWWdSOpvROHuw+pQlY4hZd8tFoYQb5iUq1ti14d+pyMK6Bma1p9W+QguY4GkRz6z28vLBIs/9UsXLrHQf6nCbkUM35kUwhG0kMFEQsNvwSFCpjV3rzkVBkIPmoYhnVnqdixK+yFQcLEpTUk9LXJqJn4whIXXftIMJu89LjmhXuy+iKLPS03IfUFKiqD0U80zKqC+iAHOxM9HuxM4erO66c5hMkmPllts/UCmNXR28ZlYHijApIy13ASXg3UMxz1Qc9T7IrWmUhwKnGzEIO2TIyj4VURCw5yRRUCqdTR3eByGzMoAV0nIbUHKnkD08Wa19Hm6fxV5aYmJcp00601RFIcCgURUbm9I9nYpMxZGW2wol0LeoZ5J7PR2hfZrkzki6N3N2w+ovZmAo+iM4GDBoeASUxc6mDPukIJM8ogWWFvVMtNc+0THS4YcPPbLvdsgoVXPDYnGIIQCcJAJKubMqw5qEmpDbjPJIi21ACRwp6hnpqDURMcmDgQzXKvaafbvuHIbVok8sUQ4xGDBwfkUhd9bisCZqxuLgnUGeab4N6AB7uGnDZ4o2zyPGqAyenifMIA96PJjZUBnA6q9nIFrujXRWA5ckDJ7jv+wrn4cYssATnsUB7+EibN8RzIUpOkF0scZARz0PPqM8GOigJ9M5RvTdDhm4xnyR+YzAReAKvPkyizwcjmIMdKb5JqADLOMRg48wD8qCD5mt1yuFgROYwB/CIOLZW4MQ8APDPkAlmIGMOhxsBnl65rmLqmnxiWEZ2CYtSXfHNWFvk0SSgnY/+xbg98Z9elpRQuYPX6RgN8Sm4EoZMo1cHC8L+MTYIBtKnuGq0B3qqFoqREIVGAgr4RjcgRfwCX7Az9nfauHwYYb/hROwHsZBM8g6WzLpyawAXO+nQ5NJnSq6yXXa8E1b/Qz0XBB7nfsq5cEsTwHEDHTyBDWyQOlc8juAo0+6p4M7BEISFJo7VIV60EAUtN4ejISZm7rDmj/w3+0MBN/hb+gQ7NIDBqgMs+HaroIoeAl73wEpYJNK9txpejzpcLFZQ30fxjwJBo0NtE0UBExglHQw0+nWVKInM83XAZfg9e18ooEb5EAnWAKn4DF8hn9BsQdrmSXMgCchTleHM9AVfJNGj2fdGiIdKo5yt/jEuU4bUan7qg0TGD5JH7ltA5koRI9nmq0bXIKxPsHAFop3C/c6WUthDhSDbVcPsbskjP57srTeVw6qlx5OFZ00+Zsw6CiHqp0EmNAoyWAmE8z0pBD3fm50eKbZKuDQliA9ucAO6sPp0D6Tng1r4X9QaTvQCnRrLgsDYIQkGHWAkh9UB632wfwHS7x+5atYBmHGiWj4C5FNBRlMZHo/CqBA8ABcE2sncCgEox5dMZ6gFmzo15jXBVHlUNh30GpfeQ6l9Hh6Sb40VbQTg7LiPyKMMbGlAg8mPL2EKnRoxiXY45OqYuHBqn5hS9AMbkCSKYe6uswjfUda7So/r5ZOmgpLzZQlQ9mIW4ZjMWCCy+2b0KBHA0Xo4EzTVcAhWJBQj4bpIVgFiRMLus0QMgwBg/BPvM5conWs1fbkLPTSScOSU4OypV5Z+yKEMMHhkaRAnRFN5NLhiSQdmkDyYaXpMuAQjE+mrlcfzLpJL0E7eDRtO54ZRA6zYt+xlrvKTo+WeLldqre0293kOUHYKl+kixZcD7gS3ZTjwYBLPi6UkIdWXIJhyTS1YNaF9xL0g+PgbAWUnroI/D6U70SLXfCyiuVIy+jTgLBJS9LVcRycMOG5igxPBlTyUaGCPFhpOg84BIMSaU9XNws84VxwUd9GgBFuBxEY7DvVYhv8qWJ5UjHr04R3hnAG1kw0ShgTX8rQZIAT8fLhBFGeVGk6r0hXYIA7wSxH7wzAd0i1odsgsod75JEnzspHk5sj6JRbmH4CYRvpmigExMMX4OMkh8PPH4GozpfjBLNWPvXgphOY8Jmpi8ArCPP5HAGmPGkyyNN3I2vykpw+6IrEpgxOeljyYEEuF640mQdS1bThk1kkDnAyOHJ1SDMAzHA/SEz9DD6fXKlq51DlFEplLyHqDJap6Fd1cRQwKRwKH34PvVRui1qutNJkFkhVMDOYdfHgrGcasPQQYt+dP1esui1UeWLJh2XFW4WiZd+IaqQWtMLsYMgVuaUUTttdNW3afZpFomB3rPcBjzXQsRYe49LYdsDg3MXLRfbXh0O3zS0Us94Zx0bUV46fAnKjH1javuKzECUBBwEmb+5VpLDoxfIUtHLFlSZVIE0dJJh14e8IlX/gddAQciEK/Ps9GERAFtRe5NF2FWTtyTWwyr7uWMv0+eUWqp4CWV6hZOSmmHxaj29gNnVFKmdsAx2TKEM7CFwMGIoLXEUqTTpxyRULUjniSuOqIUXtAB7aBe2CDGyFouDg81WCtkyYunDZaXPXYFEQKfMF5BSqPgA2nViEhamnHlb5JtAaPye2KzGg5iJtDfcUQxoeThJp0hUK/L6Qr5zCSpqCCiGWjwwEL3spUJ+qhhDpE5r7wi1wwRL9oWhuQfVSEVia+0Y58VKg/EIRicOi1wxSK3yQrFO1jWgM4RiSsIcvCEPY/DapOOny5aWwpTWYEwOcXyRUgri/rz2XeF03b5+6oKZ7/Ff06TOyZRz7k8yRA4NTK96LbMrABHwhzVbBL+iXI5QRxwFKiz8xwZHqoocoCE3YEwfDzM4MBtVdHAEISz4GaWH609x8QScnv9J42pCefjkx+cWozyzVS1qkJggWvTku87IgoU/B5MCxObWjIAE/IN8X1GwZXJl+2dnF4XYfRbqpa6T6mm24azoUQ+tRsacmdj4jSPpq6VeyyhfhaSECYykRS35+ySkszsou7DSqGtLTs6W7L5TD8F96Wd/TBLlBAE6Q6Xrz1+7kEtQqFYFevrCmq8aXxCwnXzxkFxaQ7PySh5ebkWzCnBT8FIPrLo4EFnC1MBTkotCj5PLP1UqfjGGYoQ0TxDBGLE55+eXyrsrOrzSsLqSnAYJMaYX37kFlCejspSD5I4VBE4f+/rkg8aMjCDRZNV7eQZrcRu4R/hPmnYkermuKQimEPURa8ZC6K/zJJs4J0+Bb28GEoYxILM3XlzRZN3FUVn6lQXXBoXckDYwUWr23YKGaO4A+Gi4XVuEOKFgZJOCpaPFR41XjTh2kyS6OSjdtRYi35DMT99W8RmCjUQI82TLCdlBgo11VfcM8L2PtLcNnhjI8DDXWIS9JngVvSKXJwATwMgM2ySxxEyZAS4lDeXEwX/AWxZ0/yq6qTd87lZUvANr8kgvL2BdBtLo7sfEd01EBNgK6WtjaRQ+CI3NFBmDcN1nQdBycMAxcEh5YY11lZddwUlauosddCx/MChT9AzLQxls1LjnoUhgMceZg29Fb5dZ42XgNF6mFZdTYEXvqW/Fvsc6m+aVWwCrARiPoarvsU7XiB/H2NBIWYzjL3povQ5osQ1yUla00mF4w72coLlaQeb5NZJ7v8la/AD3lni+Yh+pKiUXBOtFfY3/zlWm8aPydizR8+R0CL59fgv5C9Co7LgLQ1cIQG4vDwJoZ9oONnxNChwmEs7xkjVWVZssmqQQuleRVtwJCbyVyTW8DVJOANXKQB28K9gVXoEGQONOzvR3a7PJpK9woby3zShRDtYAZWNBTLCOtiXLYYNtUzsSUFWG8W+KFtVeASwBDWn7bf72RNrfAp82u1J9eMA8OeStmKfslXmkEFBMtg7msWC6xzSXWQuUS5BIXRyDobSLQ2As1WjR+0ElqsJR1GnCj7tmm90xnJcxsAl4t5LGQtm8WfSQMIVfvV3FBDG2E+ZKTXY7hraXFTyus1J9cMO8EZrxFuNLVCIifuuwdT73cyKWiwcYgAfO8VKN549KcpMluuaiMe2OeTV6Rsn9ivb5JkAF08+PMrwgubDnVWC33RhiiZH01E8NyoySc/i47ux3DizRwJDOgtQis9kYMJroh+nbmbBs0ChKbA4Mtx1BxW+0BeDy30jwVfSsuwoZANz8ifavOMhVj54zMsU8DMSRheEthruQIi1ZYINPyK/b1bQYMFKlQF+PknGxuGoRY9gnR1y18J16s0azxPG7SgCUfl/HvgmGYC6nHaiErzA6CVm1/th7flf1lU5aE3IMWF3wqhrg8drawQEsjLG40/Eq9yQ3zoIsZFxRZuRUeVgRR2znf2s3KWXTZGv3DeSWXg0jJbTX7wIx+ZGkHhqeF08zBnp7KJqkhZU+NvGcMWXdtwzBHkCtZwnY5SBpNUN8MWCZ69TNnM6C9eCLvCc7y/LGBp0XQIkgMATYxNJxdbDRv4ig1v902tRniiwF0r10ozC5gOPlAnZghr+qaYZjm8lBa46/VwgaTmt+pO3lg3p7MeLDEXcDFjMdfPc58u3k+dzJlr+z30aZ84oWij6li3Z+rwezmalyl5o9MfuuCmrmeq9lcBNs3TMSYb8LAMGH+s5DlOCRhqEtBdtEKhy+pdJZmTFfifiU/NmXGo+FsiNvy4eoQL4aqEPcuI7r+kXChvEUfr+U3iVDmRcltvqAtnsK6mqbot5i4JFBWT/zlIXWz2pnhLvkoCbOLlj8+Hh412Kk7fmAd/NyIGaeT+Kc3w0PPoNLs5wkHJnO+7tfuXlmQgKE+lgbVzSu6a8tiYUlGDYcA5iCY2VEJGw9U3S1j4KicsaFNF/om1x+40wUlkVCywKYGG6EqRKm5HfPgQ79WgLY/0YkvQyBgPIpvG94GO6HLRtya9gslNnaPeBpMb1Y4TAs2Cb8kS6l1XiM8ZskXBmnlvBbrbpqQx70wkJdCYdGC41+JSKZe3mUZjDbEf095ssKPoOKj3Xk07BIulDdLzW0a7shig+5MrfjJYP0UofX5Jo5CNIQzYxS4JPBxI+QXLXeowAGJijupM35gHVxDsbcC9J2JJuZZsuIZBuXg4L+dgbaia3lQ28dUf3rzXQ5TccfIEUydE0ir2hu2ft/EEQC8NCsEfykQNg24+Ijg2FB+f5UVj4YrEtDREn+AoB386xYMbkxuIIkLejtUYPNKxW2K1FG1AwyU6u/YhjtmNcDphIIHi6UAfXlyISgabts1FKrMTp3RA+vm6i2DNqaQqccG9b6xRgegGFYd9oheB4B7bPUnNxtML3GYMrMdY+UHBaFRD2yjgYmXAbRiQ+ttGec1uz8LfyngF21ma6jB5JK4qdI7dYYPHNoLHNLodNDHNGhiiv/SHhy86wuZ+iAHWgYJ6O/17UMzefIYXu1It8gj21jPJMjQ6nk6Zw4G7u+cMYapvSHxJATgjwAsmszh+k9gGQxQWr+QnvxMf6Q/Zgix2kqh61Rk5wivGFv98c19uEyZOVTpbZnfhlyLPbNN7pj2RWCBq6F1s9a0tR/G5bGtGP7mO2jS27HIU6Z3ag87XK7JSr4yY/yXVq8/PgAGZeUDBVlwfe1x1RvfXIbT5MnDpE1TFoRESzyz+3VQ4DSA2x+zIwM9V/qHebw6dckXsvrbYvjLTLDMWnULOjgQu4XOU38qVswv6PVyFM2yY8kTW/0AiL84K21fvRL0cGyYg6F/zRX/EVNXP4wn5UixGP6ShxpBpqjThzK9kaVM7aQ66GWPX/H34K2ycihpQ6iI67xuUyS3rPwy9lkQa6kXlnmgOquhLQBYNfWruuG/2KEYkHFz0rvsUMzJM8CmTh2KzEGSIn2S6mCIAxrt7h0fmLrqgJNgbwN8h8Lx1J08nKUwRfpQSxq/FFY7Ii37SkTHKkkNgLc4czC834IfbNKSMF5U37BfCmAEm5nccs+HkaNIndQadthn+YzxxxzQCRyu+OI3va08qAWVbQj/BcRSd/zwcI5TpA558lhs4ry23BuR9lUSA9DpNIV7lZ3thyDyqL9sqKIgYBSbGdymSh3y9MWjHYiSp67UGnSkJRLtfhK/dkCvl+5nABgMq+ACvJm6hk+RKBvCCY4QR51x5w5cJ0tecuAy/o2BO5VsoPhaYEErtnspmKdi4vyHIWLi4mdw3SEZPkwfpkzfrucu3Xk4JJq16IByYDMYpENdGL7SV8e96A8/INKIAL0tu54kfiusDcCDgSiHIlkP7SQAPP03zHZznHEiJiwIQ9DSL8Qfxgg2PyEjs6mSF3nqQoI8eaXmYCA1zVXidA44CcV2xTc5AIx6MNyE3zFmzVsx+3/HUGfU+VDnyZMXaeI2+ix4tPIn+fD5jHAawDG05sxe2Am6CzX+mzDEVf5jCTRwMSDZfLUyeVk16ByiE2BHUOf0kQPGVgFnxJf5rAjwAPwM+769arLHzze0yhfLPhULmI59Kuh0tpR3Ls5A8geNRgJIlumZ4/Gy1IUwWfJKeoJ5Ei8Ekz63LXWA/8q8bRNWhMUeQaz2qPOkBhLHb0atTF4w5gy5Z2pLrU2At2id3ww5p4L8s8yvHEYyR0jPbIrUzfe3SAn4C4n6XHe8bchO5UG6GeHFlr21JHYp9RvDpVjYduwc0DG0dqo9UZeE8dwSSV/NDqHY3G56elMkLr9HkCxxpWZ/IDVVBEkDJI1f+3mCpAO4MJVy4fe5k1TtYee7TbTXfvwUhSGGguerAFuT9XDllT4IA8fRODBEkCzT04cycfHFkT/M2TUTx0MFoOi8tQNngiThwtbQy+0s+z1F/DIwN3EpuL9FW7Ie5EO1wgdjoMk+FfioSE7s8IrETZa4ECKLX6nZG0hNUER2r3CwjeOvNpEWm29IwEIHduEHO0yQtQ1wkKk96FyikdYemJ1cE2nrogVpXy3/wRiYHD/ZfwaRTFr6WNu3B1Gi8xsfgZQYBlusW7ob6N5BH6zMJar9bZWkO8Ws0KUZxU+WuMkTtwG5MmfmLOGRuhAD2f57ltw8EgQQbPJgk5a+KOK3vRIgjd+p0RtITWCAl0ESTBEj8YJu8CjouQeUuj6UL9C2IDQOKCEBR4f2f1Ha4MHx4jws7ZamL1JrMDgjK0kTD1n8ti48ZBybBzLwjflmqXsq9AoESx5MaamLPP7w5ZXkoss2M4aPWxM+XPGqDxOCIvBfeCjYjOOA8FtJ3nXIpUVXtqU9+U7WNQvP1XymO9L4DQZx9FHgTqh+r4qubmiNwCgSjIA305KHPP64v1e1e/1jevKwMoiCTasVANey9Yag6mADCd52xpFLLC8UgAtdxxFrg6tFwyPpYq99CNTqDx7cTpLIrSJoEM2YLyIfqlkzj0qmGAzhowaCrUkMBnsm2QgcBODHXtNShzx2k8YvDSTxG0CtXv9YozuQnrYXZA1SEInjQuFSCMrIrC9UnTFA5vE55+B8H7G3sv+eQK1+56Z1OiEUkthNFH1U9BoGkaVfWeahSmKBJXycrQi7hx6u47OA+1VM7rm6EPNv85kBPDdITV1ksdsJXXxziw/CXgdu+R9/B+rcLAR1ZAbBoTgOctFiIPPsxbU+826uDIOlywqnVFitXufKlaL4MEu/sdssbAcOgnYwcREQeM1zJLjT9ANTf8vOvtQzqblhh2JcCn6I3Z0ZOG+VmjzAM/GJ1+z1j9W7A+npYMcKwmYNNfvoBNhA5f5CcACc4W5hPaw4hkX/WfLaMZfoqvaW/7Ia7A2yLnlh1yYeL3HsJgzfSjsdgR9lpbcz5B9cbqeRtmAEvBU5iG0qbsmAbDRQbeDzuUFK8pDGH1sHSFclihbj8IXbMAPqQeqiN/Guz8CREJwgF11yyX6hcX5YqehhfzT9qMDr3d31EmT110chNXudEzdVizByczS7yYsfBp2Vv1jpPyE6UgNqjq9BHAnBNjbMQcDB8NTIUec0rUNM6/MNA7bsG5tXd03g83mrlNQhjd18dP6v8ZayD9TLXUJQobRpzP2WKtdtEHisphl+whdoW9Lv8zp9LXAJQjd9qTsyg9TW6u7Yb8v6amOBGdpwfcqumxsuOJ8ZFjTd9XuWQr+KERwqb1+ZrVciGqcze5mU5EUae7QA1Oz2j9U7AykKCpda3Sv5NkEQ9JDfXfzPopVhmqCl1j7j5ccooGa3c4fWygw9ZOoAPugRul+2YsKCjPsmV5i0+CFwBeCJ62mZMAZPEmwuI43efHNf+pkNSldyP1Im9HfRxzmlV9QERQpDcdhYkNXD2JwTxR7ktAhCj03AqeIfYyjrW1wPmnlZbjp5k0QfZ/cgij2p3h5IUR6mmaC2YWkpLB6bBBSFK0Hic+Dudv/3aV8yyIJTO8irRndwnfYSRl7rEor2VExZI1RNOxYs9jopiYsk+vLJdT91o5YqPPO38DuULfOy+WBTK4aqJxC+NwdLXT89xfPLgyyYaZwo9hKHH/0zy/raZtl3RsmmrX7K/wkeC1ySsNfhS01q/CaJPETRhxtR9En11kCaAls4YYJwx1LxBate7jcEzOr70tDzC9AXxsHy+/UQpP3E+ROhfCwIg8b51OgM9mqxG/XNLN/v+Mmo14ofxDgRgzwXRyFC5GF+PmxSErcb+eA8NLHqt/Db5Z/lyr90br5wXHq32PsY9wXNA7iFi8PGdszyb4Ra1d2yTe+aZC14/P4yRJaSyEsUebiIIk+qtV6kqpkexqiSb6sGu1yCRgae3Ami4Y30ctllO1WjPfhPk4kir7cdBJZ5IHy5/kJMWhIq1bvs1iGC20OyBCc1dpGEH743v2rX4jwhljv9/dLC04gtV/p99lXyfVV5GO0nBoMSTWD2gJqpnDEK5HG8mto71lGFAJnnyfGlLiV+E0dewsjjqcLIk2rNF+lqB3BDz5nmOE9N+z2HM7faiY1n+RM/cSW06IQw/NRTqeonBoElhoTWw63PNzdG26FqbtjGe+rrG/7Pz/b42A4KRDAmMztJid3E4ZfPzV+/XOtWLs/8hC9Tnes7Z3jpSoW34UsLFurza9Y9VRx+vFsMhUAUhHgZNuCbqmvxRGQt/sw0Y9WrEvA8Isza7OgHph6r/wiwAUwOl4advJE49BCGn1RtvkhZfjIqrr6pZXrvfwmnVGeVT2lLbkwGRVl5Es7H9xBkwVUw5icMPyz2roPAEkOgJcTiIZ4Z9kOM/SYo2o3uXNy+QzGc5hUxJOFIKIEGtgnCce3n7iQlehGHnlRpvkhbO3iuAtg9EfF7fQ/2cYIeTsC8I3gHIN+Y3xGJ1oEw9NTeKUwSegwCS0sLDrDBY//0iHs2ZUWgtqtL/fHlt9nmcfyaUADSaxq6SM2mo3caFRNpy//9ynHdDyrnLEo+O/jBPlbbK1VX2vdqvR1+6UEYtDdCGHqQsPe/GMQtoRa3HwQZT+HhiqGqv2MTFgTSVcKlXtiwn+KqW16NRfC6ei4FntQy3OGN1OVvd7RYJraLvBvyQMRAumuybjGQsu203yfDkk3MWvp9ILc9QegtQfhFaaLwZyBYPqnF7SviK9riCHS13SZ3jXUqFn8iJLdW+SJvMF6qTe+qXmW3zeBpmmJIwijEYWTouwPpy2/iK3K93K3QnkUvVl79B8kb0zR1WDpnb4uHtD8HWXBz7eatLgq9BoDCpRBLgvuHYKipjU2Uw8J22O4H/PeIO7bcOxs/J95unHzUFZZ/J6Me2GazT8TZBlRNsh4OxrZGI4hgVOIxMqztgRTm/beEs0l66LvwHN13wR3ldaZYbKHpq9V+1JtW7r01HloGYbD2616w/dSJKU4Yer3qk56HPYU4GKJQagsfrLMKu3/vdbfMc9L31W7r/Svyxje+cfCNR39X2WhXratp+lTC7met1sSy4UgIu6y65gc7y+cEV+JhluihqJervqK5j+VuA74r6BPWLX613qBcpmBJELY3+wShl2j70R8U1yZYKNIUjoLAtnlivync5PlvE4AsqFwEhpsB+0WnLXz8BivbWP6XuvJ17seLApuL5ge7vEoQBz0v2kO8M4RHg14b0fqfeRhINAsg5p1W1xuEQRknMkMvuATbL+H2qz9YXJvkNZrI3P9/N0F7g2wzKr5yqme2b0O36VDfLz7LWc4Cg6G4V+kTyz1Vf59beGlHT5IMReTPuJn/Lwoq6901699f2BScexv8FEwpgVf36/YBEPZ0r1UucSyT/EvdLu7L1t1kzXutVVsv52U/QegzgCuf9LzGUar39MtuDbJ+AjWW+++uvb26PtvkoNAZoO07vjcZmDfzmc98RzD3mjCgDCr8du2g+WSWBJmhD9ufK5/U0ijKPlVtvqzafCUBZW5/hFuv3/qk500n683erLU/t3zS86YDVLU5WLU5xFgZ2y9hb3aaw4Za6H9Vmi/XnYwytj+CrddhP2l6QElpZl9QmqebdcvP7MuVT6L/JWe82Zma6X8J+mwfsDRTOb7YGw2qSuNllcYrCSpz85W59fmsZppfonLNdLMytj5rH6X5efS9yo1k5UZKssrY/GRs/dGHWz6Jzpe0/uwozdPN2kPm5uddmlumA5S++WocMjZeGZuvd2mm6VWuv3yyldK2PhA9fQ+9QJlBxXjSaDSoSo3kphNY+ubnfXryS/N0ndI2P1D9XfrG5xgzsrhK9eRdE1na5h9/d4wFjrXMVx/n7266wCwuqeM4vbjSTLurVCYrlSlJLX39c5yeoMyg3yV49ARLM6Ua1ubEWDOsmbbxx8dQahJwfu2qOq0ZSKUyn08o0ePuM55HmeJxPh3OpDllIFE5j0TllCSXtv7HEym0TES4NYY/VAYSlXNeouHUjb9svztfZlCl9ihP+QwkKmfzsUj4Z3uAQpXpCNuqLCQqZnRUzp9JHz828tk4kj/5hT47C4mKaROV87hrUTHFeZViSlT8k2FXISbGPvunT4/PQkXFbNuj6yyMYVdNLIyOsG3wZyJRpCUq5rPkjx4NfDYe57v5c2PSn42Kitm7x87A6Ahzh58mFUW6R8W8lQJjV65HAsKjhYUx6KdLomKWjYr5J/mjUqQ4/mwcwd/OUpvnp0+iyFFRpCS/SrWUKSOdDrDt89OoolraR5Eb0mEs0JlElKd7ZeaAn06JaukRRe5Ng3HCrqoqrj7bHuWFhbJz2E+vRLV0jyLXpcLosqriZMSS9HZdhRry0y1RpF0UOTKK/JsGo8tZlS5OvqIvjuTfjjB390/vfj8NE0WWiyKvpPFnE3DeWd1Pz0SRblFkjyjyYRp8VnfE43zVAbUtXfk55KdtokhTFNkiijwYRX5L+ojiFZ3R0nC9MB7jeyLKK52kXDN/bkz46Z0oMiKKbBhFTo8i90eRd6LIX1Ekk1ulWnLIrvysOJISEJCWgFN7lP8ScD5JRHkpEbeDnaRcklzo0/20iwc=;clipPath=inset(0% 66.33% 0% 0%);" vertex="1" parent="1">
          <mxGeometry x="282.62" y="283.5" width="52.76" height="50.67" as="geometry" />
        </mxCell>
        <mxCell id="iJa_NErr--u8IuQi-Ut--2" value="GHCR" style="shape=image;verticalLabelPosition=bottom;labelBackgroundColor=#ffffff;verticalAlign=top;aspect=fixed;imageAspect=0;image=data:image/svg+xml,PHN2ZyB4bWxuczpjYz0iaHR0cDovL2NyZWF0aXZlY29tbW9ucy5vcmcvbnMjIiB4bWxuczpkYz0iaHR0cDovL3B1cmwub3JnL2RjL2VsZW1lbnRzLzEuMS8iIHhtbG5zOmlua3NjYXBlPSJodHRwOi8vd3d3Lmlua3NjYXBlLm9yZy9uYW1lc3BhY2VzL2lua3NjYXBlIiB4bWxuczpyZGY9Imh0dHA6Ly93d3cudzMub3JnLzE5OTkvMDIvMjItcmRmLXN5bnRheC1ucyMiIHhtbG5zOnNvZGlwb2RpPSJodHRwOi8vc29kaXBvZGkuc291cmNlZm9yZ2UubmV0L0RURC9zb2RpcG9kaS0wLmR0ZCIgeG1sbnM6c3ZnPSJodHRwOi8vd3d3LnczLm9yZy8yMDAwL3N2ZyIgeG1sbnM9Imh0dHA6Ly93d3cudzMub3JnLzIwMDAvc3ZnIiB4bWxuczp4bGluaz0iaHR0cDovL3d3dy53My5vcmcvMTk5OS94bGluayIgdmVyc2lvbj0iMS4xIiBpZD0ic3ZnMTc1NjcxIiBpbmtzY2FwZTp2ZXJzaW9uPSIwLjkyLjMgKDI0MDU1NDYsIDIwMTgtMDMtMTEpIiBzb2RpcG9kaTpkb2NuYW1lPSJnaXRodWIuc3ZnIiB4PSIwcHgiIHk9IjBweCIgdmlld0JveD0iMCAwIDQ1LjI3IDQ1LjI5IiBzdHlsZT0iZW5hYmxlLWJhY2tncm91bmQ6bmV3IDAgMCA0NS4yNyA0NS4yOTsiIHhtbDpzcGFjZT0icHJlc2VydmUiPiYjeGE7PHNvZGlwb2RpOm5hbWVkdmlldyBib3JkZXJjb2xvcj0iIzY2NjY2NiIgYm9yZGVyb3BhY2l0eT0iMSIgZml0LW1hcmdpbi1ib3R0b209IjAiIGZpdC1tYXJnaW4tbGVmdD0iMCIgZml0LW1hcmdpbi1yaWdodD0iMCIgZml0LW1hcmdpbi10b3A9IjAiIGdyaWR0b2xlcmFuY2U9IjEwIiBndWlkZXRvbGVyYW5jZT0iMTAiIGlkPSJuYW1lZHZpZXcxNzU2NzMiIGlua3NjYXBlOmN1cnJlbnQtbGF5ZXI9InN2ZzE3NTY3MSIgaW5rc2NhcGU6Y3g9IjMwLjE3ODAyNSIgaW5rc2NhcGU6Y3k9IjMwLjE5NDMxOSIgaW5rc2NhcGU6cGFnZW9wYWNpdHk9IjAiIGlua3NjYXBlOnBhZ2VzaGFkb3c9IjIiIGlua3NjYXBlOndpbmRvdy1oZWlnaHQ9IjEwMTciIGlua3NjYXBlOndpbmRvdy1tYXhpbWl6ZWQ9IjEiIGlua3NjYXBlOndpbmRvdy13aWR0aD0iMTkyMCIgaW5rc2NhcGU6d2luZG93LXg9Ii04IiBpbmtzY2FwZTp3aW5kb3cteT0iLTgiIGlua3NjYXBlOnpvb209IjEwLjA5NTE1OCIgb2JqZWN0dG9sZXJhbmNlPSIxMCIgcGFnZWNvbG9yPSIjZmZmZmZmIiBzaG93Z3JpZD0iZmFsc2UiPiYjeGE7CTwvc29kaXBvZGk6bmFtZWR2aWV3PiYjeGE7PGcgaWQ9ImcxNzU2NjkiIHRyYW5zZm9ybT0idHJhbnNsYXRlKC05LjU2MjU0MTcsLTkuNTYxMzEpIj4mI3hhOwk8dGl0bGUgaWQ9InRpdGxlMTc1NjU5Ij5QYWdlLTE8L3RpdGxlPiYjeGE7CTxnIGlkPSJncm91cDIyNTAtMSIgdHJhbnNmb3JtPSJ0cmFuc2xhdGUoOS41NjMwOCwtOS4zNzg2OSkiPiYjeGE7CQk8dGl0bGUgaWQ9InRpdGxlMTc1NjYxIj5HaXRIdWI8L3RpdGxlPiYjeGE7CQk8ZyBpZD0ic2hhcGUyMjUxLTIiPiYjeGE7CQkJPHRpdGxlIGlkPSJ0aXRsZTE3NTY2MyI+U2hlZXQuMjI1MTwvdGl0bGU+JiN4YTsJCQk8cGF0aCBpZD0icGF0aDE3NTY2NSIgaW5rc2NhcGU6Y29ubmVjdG9yLWN1cnZhdHVyZT0iMCIgZD0iTTIyLjYzLDE4Ljk0QzEwLjE0LDE4Ljk0LDAsMjkuMzMsMCw0Mi4xNSAgICAgYy0wLjA3LDkuODksNi4xNSwxOC43MywxNS40OCwyMi4wMWMxLjEzLDAuMjIsMS41NC0wLjUsMS41NC0xLjExYzAtMC42MiwwLTIuMDEsMC0zLjk1Yy02LjI5LDEuNDEtNy42Mi0zLjExLTcuNjItMy4xMSAgICAgYy0xLjAzLTIuNjgtMi41MS0zLjQtMi41MS0zLjRjLTIuMDYtMS40MSwwLjE1LTEuNDEsMC4xNS0xLjQxYzIuMjcsMC4xNiwzLjQ3LDIuMzksMy40NywyLjM5YzIuMDIsMy41NCw1LjMsMi41Miw2LjU4LDEuOTMgICAgIGMwLjEtMS4xNywwLjYtMi4yNiwxLjQyLTMuMUMxMy40OCw1MS44MSw4LjIsNDkuODIsOC4yLDQwLjkyYy0wLjA0LTIuMjksMC43OS00LjUxLDIuMzItNi4yMmMtMC42OS0yLTAuNjEtNC4xOSwwLjIyLTYuMTQgICAgIGMwLDAsMS45MS0wLjYyLDYuMjMsMi40YzMuNy0xLjA0LDcuNjItMS4wNCwxMS4zMiwwYzQuMzItMyw2LjIyLTIuMzcsNi4yMi0yLjM3YzAuODMsMS45NSwwLjkxLDQuMTQsMC4yMiw2LjE0ICAgICBjMS41MywxLjcsMi4zNywzLjkzLDIuMzMsNi4yMmMwLDguOTEtNS4yOSwxMC44OC0xMC4zMywxMS40NWMwLjgxLDAuNzEsMS41MywyLjEyLDEuNTMsNC4zYzAsMy4xMSwwLDUuNjEsMCw2LjM3ICAgICBjMCwwLjYyLDAuNDEsMS4zNCwxLjU2LDEuMTJjOS4zMy0zLjMsMTUuNTMtMTIuMTUsMTUuNDUtMjIuMDRDNDUuMjcsMjkuMzMsMzUuMTMsMTguOTQsMjIuNjMsMTguOTR6Ii8+JiN4YTsJCTwvZz4mI3hhOwk8L2c+JiN4YTs8L2c+JiN4YTs8L3N2Zz4=;spacingTop=4;" vertex="1" parent="1">
          <mxGeometry x="55" y="300" width="60" height="60" as="geometry" />
        </mxCell>
        <mxCell id="iJa_NErr--u8IuQi-Ut--3" value="" style="endArrow=classic;html=1;rounded=0;strokeWidth=2;entryX=1;entryY=0.25;entryDx=0;entryDy=0;" edge="1" parent="1" target="lqJwBGlJz0aM91r_tTBh-12">
          <mxGeometry width="50" height="50" relative="1" as="geometry">
            <mxPoint x="270" y="300" as="sourcePoint" />
            <mxPoint x="130" y="133" as="targetPoint" />
          </mxGeometry>
        </mxCell>
        <mxCell id="iJa_NErr--u8IuQi-Ut--4" value="Hosted" style="text;html=1;align=center;verticalAlign=middle;whiteSpace=wrap;rounded=0;" vertex="1" parent="1">
          <mxGeometry x="190" y="200" width="60" height="30" as="geometry" />
        </mxCell>
        <mxCell id="iJa_NErr--u8IuQi-Ut--5" value="" style="endArrow=classic;html=1;rounded=0;strokeWidth=2;exitX=0.5;exitY=0;exitDx=0;exitDy=0;entryX=0.5;entryY=1;entryDx=0;entryDy=0;" edge="1" parent="1" source="iJa_NErr--u8IuQi-Ut--2" target="lqJwBGlJz0aM91r_tTBh-12">
          <mxGeometry width="50" height="50" relative="1" as="geometry">
            <mxPoint x="370" y="-49" as="sourcePoint" />
            <mxPoint x="270" y="320" as="targetPoint" />
          </mxGeometry>
        </mxCell>
        <mxCell id="iJa_NErr--u8IuQi-Ut--6" value="Create User" style="text;html=1;align=center;verticalAlign=middle;whiteSpace=wrap;rounded=0;" vertex="1" parent="1">
          <mxGeometry x="300" y="210" width="100" height="30" as="geometry" />
        </mxCell>
      </root>
    </mxGraphModel>
  </diagram>
</mxfile>
